<?xml version="1.0" encoding="utf-8"?>
<!-- Generator: Adobe Illustrator 19.2.1, SVG Export Plug-In . SVG Version: 6.00 Build 0)  -->
<svg version="1.1" id="レイヤー_1" xmlns="http://www.w3.org/2000/svg" xmlns:xlink="http://www.w3.org/1999/xlink" x="0px"
	 y="0px" viewBox="0 0 276.4 255.3" style="enable-background:new 0 0 276.4 255.3;" xml:space="preserve">
<style type="text/css">
	.st0{fill:#040000;}
	.st1{fill:#EFB134;}
	.st2{fill:none;stroke:#040000;stroke-width:8;stroke-miterlimit:10;}
	.st3{display:none;}
	.st4{display:inline;}
	.st5{opacity:0.5;}
	.st6{fill:#F7F9F9;}
	.st7{opacity:0.85;fill:#FFFFFF;}
</style>
<g>
	
		<image style="overflow:visible;enable-background:new    ;" width="173" height="167" xlink:href="BF7C3CBAAD8E16F8.jpg"  transform="matrix(0.1332 0 0 0.1429 30.7271 107.0581)">
	</image>
</g>
<g>
	
		<image style="overflow:visible;enable-background:new    ;" width="173" height="167" xlink:href="BF7C3CBAAD8E16FB.jpg"  transform="matrix(0.1332 0 0 0.1429 129.5712 106.2136)">
	</image>
</g>
<g id="レイヤー_2">
	<g>
		
			<image style="overflow:visible;enable-background:new    ;" width="1088" height="1088" xlink:href="BF7C3CBAAD8E16FB.png"  transform="matrix(0.2374 0 0 0.2374 7.5889 24.8957)">
		</image>
	</g>
</g>
<g id="レイヤー_3">
	<g id="基本_1_">
		<g>
			<path class="st0" d="M34,122.8c-0.2,0.1-0.1,0.4-0.3,0.5c-0.1,0.1-0.3,0.2-0.5,0.3c-0.1,0.1-0.4,0.1-0.6,0.2
				c-0.1,0.1-0.1,0.4-0.2,0.5c-0.1,0.2,0.1,0.5,0,0.6c-0.1,0.2-0.4,0.2-0.5,0.4c-0.1,0.2-0.5,0.2-0.6,0.4c-0.1,0.2,0,0.4-0.1,0.6
				c0,0.2,0.1,0.5,0.2,0.6c0,0.2,0.3,0.3,0.3,0.5s0.1,0.3,0.2,0.5c0.1,0.2-0.1,0.4,0,0.6c0.1,0.2-0.1,0.4-0.1,0.6
				c0,0.2,0.5,0.3,0.6,0.4c0,0.2-0.1,0.4,0,0.6c0,0.2,0,0.4,0,0.6c0,0.2,0.3,0.3,0.4,0.5c0,0.2-0.5,0.5-0.4,0.6
				c0,0.2,0.6,0.3,0.6,0.4s-0.5,0.5-0.5,0.6c0,0.2,0.6,0.2,0.7,0.4c0,0.2-0.3,0.4-0.3,0.6c0,0.2,0.1,0.3,0.1,0.5s-0.2,0.4-0.2,0.6
				c0,0.2,0.8,0.2,0.8,0.4s0,0.4,0,0.6c0,0.2,0,0.4,0,0.5c0,0.2,0.1,0.3,0.2,0.5c0,0.2,0.1,0.4,0.1,0.5c0,0.2-0.4,0.5-0.4,0.6
				c0,0.2,0.3,0.3,0.3,0.5s0.4,0.3,0.4,0.5s-0.4,0.5-0.4,0.6c0,0.2,0.1,0.3,0.1,0.5s0.4,0.3,0.4,0.5s0.1,0.3,0.1,0.5
				s-0.1,0.4-0.1,0.6c0,0.2,0.1,0.3,0.1,0.5s0,0.4,0,0.5c0,0.2,0.2,0.3,0.2,0.5s0,0.4,0.1,0.5c0,0.2,0.4,0.3,0.4,0.5
				s-0.4,0.4-0.3,0.6c0,0.2,0.6,0.2,0.7,0.4c0,0.2-0.5,0.5-0.5,0.7s0.1,0.3,0.1,0.5s0,0.4,0.1,0.5c0,0.2,0.2,0.3,0.2,0.5
				s0.6,0.2,0.6,0.4s-0.4,0.5-0.4,0.6c0,0.2,0.5,0.3,0.5,0.4c0,0.2,0.3,0.3,0.4,0.5c0,0.2,0.1,0.4,0.1,0.5c0,0.2-0.6,0.5-0.5,0.7
				c0,0.2,0.5,0.3,0.5,0.4c0,0.2-0.2,0.4-0.1,0.6c0,0.2,0,0.4,0.1,0.5c0,0.2,0.6,0.2,0.6,0.4s0.1,0.3,0.2,0.5c0,0.2-0.5,0.5-0.5,0.7
				s0,0.4,0.1,0.5c0,0.2,0.2,0.3,0.2,0.5s0.3,0.3,0.4,0.5c0,0.2,0.3,0.3,0.4,0.5c0,0.2-0.2,0.4-0.1,0.6c0,0.2,0.5,0.3,0.5,0.4
				c0,0.2-0.5,0.5-0.4,0.7c0,0.2,0.1,0.3,0.1,0.5s0.4,0.3,0.4,0.4c0,0.2-0.1,0.4,0,0.6c0,0.2-0.1,0.4,0,0.6c0,0.2,0.5,0.2,0.5,0.4
				s-0.2,0.4-0.2,0.6s0.3,0.3,0.3,0.5s-0.1,0.4,0,0.6c0,0.2,0,0.4,0,0.6c0,0.2,0.1,0.4,0.1,0.5c0,0.2,0.6,0.2,0.6,0.4
				c0.1,0.2-0.6,0.6-0.5,0.8s0.2,0.4,0.3,0.6c0.1,0.2,0.6,0,0.7,0.2c0.1,0.1,0.4,0,0.6,0.1c0.2,0.1-0.1,0.9,0.1,0.9
				c0.2,0.1,0.5-0.5,0.7-0.4c0.2,0,0.3,0,0.5,0s0.4,0.6,0.6,0.6c0.2,0,0.2-0.6,0.4-0.7c0.2-0.1,0.6,0.3,0.7,0.3
				c0.2-0.1,0.3-0.2,0.5-0.3c0.1-0.1,0.3-0.3,0.4-0.4c0.1-0.1,0.1-0.4,0.2-0.5c0.1-0.1,0.5-0.1,0.6-0.2c0.1-0.1,0.1-0.4,0.2-0.6
				c0.1-0.2,0.3-0.2,0.4-0.4c0.1-0.2-0.4-0.6-0.3-0.7s0.6-0.2,0.6-0.3c0.1-0.2,0.2-0.3,0.2-0.5s-0.4-0.5-0.4-0.6
				c0-0.2,0-0.3,0.1-0.5c0-0.2,0.5-0.3,0.5-0.5s-0.5-0.4-0.5-0.6c0-0.2,0.5-0.3,0.5-0.5s-0.5-0.4-0.5-0.5c0-0.2,0.1-0.4,0.1-0.5
				c0-0.2,0.5-0.4,0.5-0.6c0-0.2-0.6-0.3-0.6-0.5s0-0.4,0-0.5c0-0.2,0-0.4,0-0.5c0-0.2,0.4-0.4,0.4-0.6c0-0.2-0.4-0.3-0.4-0.5
				s-0.1-0.4-0.1-0.5c0-0.2,0.2-0.4,0.2-0.5c0-0.2,0.3-0.4,0.3-0.5c0-0.2-0.5-0.4-0.5-0.5c0-0.2,0.6-0.4,0.6-0.5
				c0-0.2-0.4-0.4-0.4-0.5c0-0.2-0.1-0.4-0.1-0.5c0-0.2,0.2-0.4,0.2-0.5c0-0.2-0.1-0.4-0.1-0.5c0-0.2,0.4-0.4,0.4-0.5
				c0-0.2-0.8-0.4-0.8-0.5c0-0.2,0-0.4,0-0.5s0.3-0.4,0.3-0.5c0-0.2-0.1-0.4-0.1-0.5s0.2-0.4,0.2-0.5c0-0.2,0.3-0.4,0.3-0.6
				s-0.7-0.3-0.7-0.5s0.6-0.4,0.5-0.6c0-0.2-0.1-0.4-0.1-0.5c0-0.2-0.6-0.3-0.6-0.5s0.2-0.4,0.2-0.6c0-0.2,0.4-0.4,0.4-0.6
				c0-0.2-0.5-0.3-0.5-0.5s0.2-0.4,0.2-0.6c0-0.2-0.2-0.3-0.3-0.5c0-0.2,0.2-0.4,0.2-0.6c0-0.2-0.3-0.3-0.4-0.5
				c0-0.2,0.4-0.4,0.3-0.6c0-0.2-0.1-0.4-0.1-0.5c0-0.2-0.3-0.3-0.3-0.5s-0.3-0.3-0.3-0.5s0.2-0.4,0.1-0.6c0-0.2-0.5-0.3-0.5-0.5
				s0.4-0.4,0.4-0.6c0-0.2-0.3-0.3-0.4-0.5s-0.4-0.3-0.4-0.5s0.5-0.5,0.5-0.7s0-0.4,0-0.6c0-0.2-0.5-0.3-0.6-0.4
				c0-0.2,0.1-0.4,0-0.6c0-0.2,0-0.4,0-0.6c0-0.2-0.2-0.3-0.2-0.5s0.2-0.4,0.2-0.6c0-0.2-0.1-0.4-0.1-0.5c0-0.2-0.4-0.3-0.4-0.4
				c-0.1-0.2,0.1-0.4,0-0.6c-0.1-0.2-0.1-0.4-0.2-0.5c-0.1-0.2-0.5-0.2-0.5-0.4c-0.1-0.2-0.1-0.3-0.2-0.5c-0.1-0.2,0.2-0.5,0.2-0.6
				c-0.1-0.2-0.6-0.2-0.7-0.3c-0.1-0.2,0.1-0.4,0-0.6s0-0.4-0.1-0.6s-0.3-0.3-0.4-0.4c-0.1-0.2-0.3-0.3-0.4-0.4
				c-0.1-0.2,0-0.4-0.1-0.6s0.1-0.5,0-0.6c-0.1-0.2-0.2-0.3-0.3-0.4s-0.6,0-0.7-0.1c-0.1-0.1-0.3-0.2-0.4-0.3
				c-0.1-0.1-0.1-0.4-0.2-0.5c-0.1-0.1-0.3-0.1-0.5-0.2s-0.2-0.6-0.3-0.7c-0.2-0.1-0.5,0.1-0.6,0.1c-0.3,0-0.2,0-0.5,0
				c-0.2,0-0.3,0.1-0.5,0.1s-0.4-0.1-0.5,0c-0.2,0-0.2,0.6-0.4,0.6s-0.3,0-0.5,0s-0.4-0.2-0.6-0.1c-0.2,0.1-0.2,0.4-0.4,0.5
				s-0.5-0.3-0.7-0.3C34.2,122.5,34.1,122.7,34,122.8z"/>
		</g>
		<g>
			<path class="st1" d="M219.8,61c-0.1-0.2-1.2,0-1.3-0.2s0.9-1,0.8-1.2c-0.1-0.2-1.4,0.1-1.6-0.1c-0.1-0.2,1.1-1.1,1-1.4
				c-0.1-0.2-0.8-0.2-0.9-0.4c-0.1-0.2-1.1,0-1.2-0.2c-0.1-0.2,1-1.1,0.8-1.3c-0.1-0.2-0.6-0.3-0.7-0.5c-0.1-0.2,0.4-0.8,0.2-1
				c-0.1-0.2-0.7-0.2-0.9-0.4c-0.1-0.2,0.1-0.6,0-0.9c-0.1-0.2-1.3,0.2-1.4-0.1c-0.1-0.2-0.5-0.3-0.7-0.5c-0.1-0.2,1.3-1.4,1.1-1.6
				c-0.1-0.2-0.5-0.3-0.6-0.5s-0.2-0.5-0.3-0.7s-1.5,0.4-1.6,0.2s0-0.6-0.2-0.8c-0.1-0.2-1,0.1-1.2-0.1c-0.1-0.2,1.3-1.6,1.2-1.8
				c-0.2-0.2-0.8,0-1-0.2s0.2-0.8,0-1s-1.7,0.7-1.8,0.5c-0.2-0.2,1.1-1.6,0.9-1.7c-0.2-0.2-1.3,0.4-1.4,0.2
				c-0.2-0.2-0.9,0.1-1.1-0.1c-0.2-0.2-0.2-0.5-0.3-0.7c-0.2-0.2,0.2-0.9,0-1c-0.2-0.2-0.8,0.1-1-0.1c-0.2-0.2,0.6-1.3,0.4-1.5
				c-0.2-0.2-0.8,0.1-1-0.1c-0.2-0.2-0.8,0.1-1,0c-0.2-0.2,0.6-1.5,0.4-1.6c-0.2-0.2-0.7,0-0.9-0.2s-0.6-0.1-0.8-0.3s-0.8,0.3-1,0.1
				s-0.2-0.5-0.5-0.7c-0.2-0.1-0.3-0.4-0.6-0.5c-0.2-0.1-0.1-0.8-0.3-1c-0.2-0.1-0.5-0.2-0.7-0.3s-1.1,0.9-1.3,0.8
				c-0.2-0.1-0.3-0.5-0.5-0.7c-0.2-0.1-0.2-0.7-0.4-0.8s-0.6,0-0.8-0.1s-0.4-0.4-0.6-0.5c-0.2-0.1-0.9,0.8-1.1,0.8
				c-0.2-0.1,0-1.5-0.3-1.5c-0.2-0.1-0.5-0.3-0.7-0.3c-0.2-0.1-0.6,0.1-0.8,0s-0.5-0.3-0.7-0.3c-0.2-0.1-0.7,0.9-1,0.8
				c-0.2-0.1-0.4-0.7-0.6-0.7s-0.4-0.6-0.7-0.6s-0.6,0.6-0.8,0.6c-0.3,0-0.5,0.3-0.8,0.3S189,35,188.8,35c-0.3,0-0.5,0-0.7,0
				c-0.3,0-0.5,0.2-0.7,0.2c-0.3,0-0.5-1.5-0.8-1.5s-0.5,1.6-0.7,1.6c-0.3,0-0.6-1.4-0.8-1.3c-0.3,0-0.5,0.6-0.7,0.6
				c-0.3,0-0.4,0.8-0.7,0.9c-0.3,0-0.7-1.6-1-1.6s-0.5,0.3-0.7,0.3s-0.4,0.6-0.7,0.7c-0.2,0-0.5-0.1-0.8,0c-0.2,0.1-0.4,0.6-0.6,0.6
				c-0.2,0.1-0.8-1.1-1.1-1.1c-0.2,0.1-0.1,1.7-0.3,1.8s-0.7-0.5-0.9-0.4s-0.3,0.9-0.5,1s-0.6-0.2-0.8-0.1c-0.2,0.1-0.3,0.5-0.6,0.6
				c-0.2,0.1-0.5,0-0.8,0.1c-0.2,0.1-0.7-0.4-0.9-0.3c-0.2,0.1-0.1,1.1-0.3,1.2c-0.2,0.1-0.8-0.6-1-0.5s-0.2,0.8-0.4,0.9
				c-0.2,0.1-0.9-0.7-1.1-0.6c-0.2,0.1-0.5,0.2-0.7,0.3s-0.6-0.2-0.9,0c-0.2,0.1-0.4,0.4-0.6,0.5c-0.2,0.1-0.6,0-0.8,0.1
				s-0.1,0.9-0.3,1s-0.1,0.9-0.3,1s-0.3,0.5-0.5,0.6s-0.9-0.5-1.1-0.4c-0.2,0.1-0.6,0-0.8,0.2c-0.2,0.1-0.4,0.3-0.6,0.5
				c-0.2,0.1-0.6,0-0.8,0.1s-0.7-0.1-0.9,0s0.7,1.9,0.4,2.1s-1.1-0.7-1.3-0.6c-0.2,0.1,0.1,1.1-0.1,1.3c-0.2,0.1-0.4,0.3-0.6,0.4
				c-0.2,0.1-0.5,0.1-0.8,0.2c-0.2,0.1-0.6,0.1-0.8,0.2c-0.2,0.1-1.2-0.8-1.4-0.6c-0.2,0.1-0.1,0.7-0.3,0.8c-0.2,0.2-0.7,0-0.9,0.1
				c-0.2,0.2,0.6,1.6,0.4,1.7c-0.2,0.2-1-0.5-1.2-0.3s0,0.8-0.2,0.9c-0.2,0.2-0.6,0-0.8,0.2s0,0.8-0.2,0.9c-0.2,0.2-0.5,0.2-0.7,0.4
				s-0.3,0.5-0.5,0.6c-0.2,0.2-0.5,0.1-0.7,0.3s0,0.7-0.2,0.9s-0.4,0.3-0.6,0.5c-0.2,0.2-0.7,0-0.9,0.2s-1-0.4-1.2-0.2
				s-0.1,0.6-0.3,0.8s0.1,0.8-0.1,1c-0.2,0.2-0.7,0-0.9,0.2s-0.2,0.5-0.4,0.7s-0.5,0.3-0.6,0.4c-0.2,0.2-1.1-0.5-1.3-0.3
				s-0.3,0.4-0.5,0.6s-0.4,0.3-0.6,0.5c-0.2,0.2,0.4,1.1,0.2,1.3s-0.5,0.2-0.7,0.4s0.3,1,0.1,1.2s-1.4-0.7-1.6-0.5
				c-0.2,0.2,0.2,0.9,0,1.1c-0.2,0.2,0.1,0.8-0.1,1c-0.2,0.2-0.8,0-0.9,0.1c-0.2,0.2-0.3,0.4-0.5,0.6c-0.2,0.2-0.1,0.6-0.2,0.8
				c-0.2,0.2,0,0.7-0.2,0.9s-1.1-0.3-1.3-0.1s0.2,0.9,0,1c-0.2,0.2-1.1-0.4-1.3-0.2s-0.8-0.1-1,0.1c-0.2,0.2,0.9,1.6,0.8,1.7
				c-0.2,0.2-1-0.2-1.2,0s-0.4,0.3-0.6,0.5c-0.2,0.2-0.4,0.3-0.6,0.5c-0.2,0.2-0.5,0.2-0.7,0.4c-0.2,0.2,0.5,1.1,0.3,1.3
				c-0.2,0.2-1.2-0.4-1.4-0.2c-0.2,0.2,0.8,1.4,0.6,1.6s-0.8,0-0.9,0.2c-0.2,0.2,0,0.7-0.1,0.9c-0.2,0.2-0.9-0.1-1,0.1
				c-0.2,0.2-1.1-0.2-1.2,0c-0.2,0.2,0.4,1,0.3,1.2c-0.2,0.2-1-0.1-1.1,0c-0.2,0.2,0,0.6-0.2,0.8c-0.2,0.2,0.4,1,0.3,1.2
				c-0.2,0.2-1.3-0.4-1.5-0.2c-0.2,0.2,0.4,1,0.2,1.2s-0.5,0.2-0.7,0.4c-0.2,0.2,0,0.7-0.1,0.9c-0.2,0.2,0.1,0.8,0,1
				c-0.2,0.2-0.5,0.3-0.6,0.5c-0.2,0.2-1.6-0.6-1.8-0.4c-0.2,0.2,1.1,1.5,1,1.7c-0.2,0.2-1.5-0.5-1.6-0.3c-0.2,0.2,0.1,0.7-0.1,0.9
				c-0.2,0.2,0,0.7-0.1,0.9c-0.2,0.2-1.1-0.2-1.3,0c-0.2,0.2-0.1,0.6-0.3,0.8c-0.2,0.2,0.9,1.3,0.7,1.5c-0.2,0.2-1.2-0.2-1.3,0
				c-0.2,0.2-0.1,0.5-0.3,0.7c-0.2,0.2-0.5,0.3-0.6,0.5c-0.2,0.2,0.3,0.9,0.2,1.1c-0.2,0.2-0.3,0.4-0.4,0.6
				c-0.2,0.2-1.4-0.4-1.6-0.2c-0.2,0.2,0.8,1.2,0.7,1.4c-0.2,0.2-0.1,0.6-0.2,0.8c-0.2,0.2-0.6,0.2-0.7,0.4
				c-0.2,0.2-1.6-0.4-1.7-0.3c-0.3,0.4-0.3,1-0.2,1.3c0.1,0.4,0.2,0.5,0.3,0.9c0.2,0.3,1.5-0.2,1.6,0.1c0.2,0.3-0.7,0.7-0.6,1.1
				c0.2,0.3,0.1,0.4,0.2,0.7c0.2,0.3,1.3-0.2,1.4,0.2c0.2,0.3,0.2,0.3,0.3,0.7c0.2,0.3-0.6,0.7-0.4,1s0.9,0,1,0.4
				c0.2,0.3-0.3,0.6-0.2,0.9c0.2,0.3,0.7,0.1,0.8,0.5c0.2,0.3,0,0.4,0.2,0.8c0.2,0.3-0.3,0.5-0.1,0.9c0.2,0.3-0.3,0.6-0.2,0.9
				c0.2,0.3,0.6,0.1,0.8,0.5c0.2,0.3-0.5,0.7-0.4,1s1.3-0.2,1.4,0.2c0.2,0.3-0.6,0.7-0.4,1s-0.2,0.5-0.1,0.9
				c0.2,0.3-0.3,0.5-0.1,0.9c0.2,0.3,0.1,0.4,0.2,0.7c0.2,0.3,1.8-0.4,2-0.1s-1.6,1.1-1.4,1.5c0.2,0.3,0.2,0.3,0.4,0.7
				s0.6,0.1,0.8,0.5c0.2,0.3,0,0.4,0.2,0.7c0.2,0.3,0.2,0.3,0.4,0.7s0.1,0.4,0.3,0.7c0.2,0.3,1.5-0.3,1.7,0.1
				c0.2,0.3-0.2,0.5-0.1,0.9c0.2,0.3,0.1,0.4,0.3,0.7c0.2,0.3-0.4,0.6-0.3,1c0.2,0.3,0,0.4,0.2,0.8c0.2,0.3,0.4,0.2,0.5,0.6
				c0.2,0.3,1.2-0.1,1.4,0.2c0.2,0.3-0.8,0.8-0.6,1.1c0.2,0.3,0.3,0.3,0.5,0.6c0.2,0.3,0.8,0.1,0.9,0.4c0.2,0.3-1.3,1-1.2,1.4
				c0.2,0.3,0.1,0.4,0.2,0.7c0.2,0.3,1.6-0.3,1.7,0s-0.2,0.5,0,0.8s-0.4,0.7-0.1,1c0.2,0.3,0.5-1,1-0.9c0.2,0,0.2,1.7,0.5,1.7
				c0.2,0,0.5-0.2,0.8-0.2c0.2,0,0.6-0.9,0.9-0.8c0.2,0,0.3,1.3,0.6,1.4c0.2,0,0.5-0.4,0.8-0.3c0.2,0,0.6-1.4,0.9-1.3
				c0.2,0,0.4,0.5,0.7,0.6c0.2,0,0.5,0.4,0.7,0.5c0.2,0,0.5,0.5,0.7,0.5s0.6-0.6,0.8-0.5c0.2,0,0.4,0.9,0.7,0.9
				c0.2,0,0.5-0.2,0.8-0.2c0.2,0,0.6-1.1,0.8-1.1s0.4,1.4,0.7,1.4c0.2,0,0.6-0.9,0.8-0.9c0.3,0,0.5,0,0.8,0s0.4,1.4,0.7,1.5
				c0.3,0,0.5-0.1,0.8-0.1s0.6-0.9,0.8-0.8c0.3,0,0.4,1,0.7,1s0.6-1.1,0.8-1.1c0.3,0,0.5-0.6,0.8-0.6s0.5,1,0.7,1
				c0.3,0,0.5,0.1,0.8,0.1s0.6-1.2,0.8-1.2c0.3,0,0.4,1.4,0.7,1.4s0.5-1.1,0.8-1.1s0.5,0.5,0.7,0.5c0.3,0,0.5-0.2,0.8-0.2
				s0.5,0.2,0.8,0.2s0.5-0.5,0.8-0.5s0.5,0.3,0.8,0.3s0.5,0.4,0.8,0.4s0.5,0.6,0.8,0.6s0.5-1.5,0.8-1.5s0.5,1.5,0.8,1.5
				s0.5-1.5,0.8-1.5s0.5,1.6,0.8,1.6s0.5-1.6,0.7-1.6c0.3,0,0.5,0.3,0.8,0.3s0.5,1.4,0.8,1.4s0.5-1.5,0.7-1.5c0.3,0,0.5-0.2,0.8-0.2
				s0.5,1.3,0.8,1.3s0.5-0.6,0.7-0.6c0.3,0,0.5-0.1,0.8-0.1s0.5,0.6,0.8,0.6s0.5,0,0.8,0s0.4-1.4,0.7-1.4s0.5,0.5,0.8,0.5
				s0.6,1.1,0.8,1.1c0.3,0,0.4-1.4,0.7-1.4s0.6,0.9,0.8,0.8c0.3,0,0.4-1.2,0.7-1.2s0.6,0.8,0.8,0.7c0.3,0,0.5,0.4,0.8,0.4
				s0.5-0.1,0.8-0.2c0.3,0,0.6,0.6,0.8,0.6c0.3,0,0.4-1,0.7-1s0.5,0.4,0.8,0.3s0.5,0.3,0.8,0.2c0.3,0,0.3-1.4,0.6-1.5
				c0.3,0,0.6,0.9,0.9,0.9c0.3,0,0.4-0.6,0.7-0.6s0.6,0.7,0.9,0.7c0.3,0,0.3-1.3,0.6-1.4c0.3,0,0.6,0.3,0.8,0.3c0.3,0,0.5,0.1,0.8,0
				c0.3,0,0.6,0.8,0.9,0.8c0.3,0,0.3-1.2,0.6-1.3c0.3,0,0.4-0.5,0.7-0.6c0.3,0,0.7,0.8,0.9,0.8c0.3,0,0.5-0.3,0.7-0.4
				c0.3,0,0.4-0.7,0.6-0.7c0.3,0,0.7,0.8,0.9,0.8c0.3-0.1,0.4-0.4,0.7-0.5s0.5,0.1,0.8,0.1c0.2-0.1,0.6,0.2,0.8,0.2
				c0.2-0.1,0.5,0,0.8-0.1c0.2-0.1,0.5,0,0.8,0c0.2-0.1,0.1-1.6,0.4-1.7c0.2-0.1,0.9,1.6,1.2,1.6c0.2-0.1,0.3-0.8,0.6-0.9
				c0.2-0.1,0.3-0.7,0.6-0.8c0.2-0.1,0.9,1.2,1.1,1.1c0.2-0.1,0.3-0.8,0.5-0.8c0.2-0.1,0.6,0.2,0.8,0.1s0.3-0.7,0.5-0.8
				c0.2-0.1,0.5-0.1,0.8-0.2c0.2-0.1,0.7,0.6,1,0.5c0.2-0.1,0.2-1.1,0.4-1.2s0.4-0.4,0.6-0.5c0.2-0.1,1,1.1,1.2,1s0.4-0.3,0.7-0.4
				c0.2-0.1,0.2-0.8,0.5-0.9c0.2-0.1,0.2-0.7,0.5-0.9c0.2-0.1,0.8,0.5,1,0.4s0.3-0.5,0.5-0.7c0.2-0.1,0-1.1,0.3-1.2
				c0.2-0.1,1.2,1.3,1.4,1.2c0.2-0.1,0.4-0.4,0.6-0.5c0.2-0.1,0.3-0.6,0.5-0.7s-0.2-1.3,0-1.5c0.2-0.1,0.6,0.1,0.9,0
				c0.2-0.1,1,0.6,1.2,0.5s-0.2-1.2,0-1.4c0.2-0.1,0.5-0.1,0.7-0.3c0.2-0.1,1.3,0.9,1.5,0.7c0.2-0.2-0.4-1.4-0.2-1.5
				c0.2-0.2,0.5-0.2,0.7-0.4c0.2-0.2-0.1-0.9,0.1-1.1c0.2-0.2,1.7,1.2,1.9,1s-0.1-0.9,0.1-1.1c0.2-0.2,0.6-0.1,0.8-0.3
				c0.2-0.2,0.2-0.5,0.4-0.7s0.3-0.4,0.5-0.6s0.2-0.5,0.4-0.7s-0.2-0.9-0.1-1.1c0.2-0.2,0.4-0.3,0.5-0.5c0.2-0.2,0.1-0.6,0.2-0.8
				c0.2-0.2,0.9,0,1-0.2s0.4-0.3,0.6-0.5c0.1-0.2,0.5-0.3,0.7-0.5c0.1-0.2,0-0.6,0.2-0.8c0.1-0.2,0.5-0.3,0.6-0.5s-0.7-0.9-0.6-1.2
				c0.1-0.2,0.1-0.5,0.2-0.7c0.1-0.2,0.3-0.4,0.4-0.6c0.1-0.2,0.9-0.1,1-0.4c0.1-0.2-0.3-0.7-0.2-0.9c0.1-0.2-0.1-0.5,0-0.8
				c0.1-0.2,1.4-0.1,1.4-0.3c0.1-0.2-0.6-0.7-0.6-1c0.1-0.2-0.2-0.6-0.2-0.8c0.1-0.2-0.2-0.5-0.1-0.8c0.1-0.2,0.1-0.5,0.2-0.7
				c0-0.2,0.5-0.4,0.5-0.7c0-0.2,1.4-0.3,1.4-0.6c0-0.3,0.3-0.5,0.3-0.8s-1.9-0.7-1.9-0.9c0-0.3,0.8-0.4,0.8-0.7
				c0-0.3,0.2-0.5,0.2-0.7c0-0.3,0.2-0.5,0.2-0.8s-0.3-0.5-0.3-0.8s-0.8-0.5-0.8-0.7c0-0.3,0.3-0.5,0.3-0.8s0.5-0.5,0.5-0.8
				s0.3-0.5,0.2-0.8c0-0.3,0-0.5,0-0.8s0.2-0.5,0.2-0.8c0-0.2-1.5-0.3-1.6-0.5c0-0.2,1.3-0.7,1.3-1c0-0.2-0.9-0.4-0.9-0.6
				s0.6-0.6,0.6-0.9c0-0.2,0.3-0.6,0.2-0.8c-0.1-0.2-1.6-0.2-1.6-0.4c-0.1-0.2,1.1-0.8,1.1-1c-0.1-0.2,0.3-0.6,0.3-0.9
				c-0.1-0.2-0.8-0.3-0.8-0.6c-0.1-0.2,0.5-0.7,0.5-0.9c-0.1-0.2-0.7-0.3-0.8-0.6c-0.1-0.2-0.2-0.5-0.3-0.7s-0.6-0.3-0.7-0.6
				c-0.1-0.2-0.6-0.3-0.7-0.6c-0.1-0.2,0.7-0.8,0.6-1c-0.1-0.2,0.1-0.6,0.1-0.8c-0.1-0.2-0.2-0.5-0.3-0.7s-1.8,0.1-1.9-0.1
				c-0.1-0.2,1.3-1.1,1.3-1.3c-0.1-0.2-0.4-0.4-0.5-0.6s-0.4-0.4-0.5-0.6s-1.3,0-1.4-0.3c-0.1-0.2-0.1-0.5-0.2-0.7
				c-0.1-0.2,0.3-0.7,0.2-0.9C219.2,61.8,219.9,61.2,219.8,61z"/>
			<path class="st2" d="M219.8,61c-0.1-0.2-1.2,0-1.3-0.2s0.9-1,0.8-1.2c-0.1-0.2-1.4,0.1-1.6-0.1c-0.1-0.2,1.1-1.1,1-1.4
				c-0.1-0.2-0.8-0.2-0.9-0.4c-0.1-0.2-1.1,0-1.2-0.2c-0.1-0.2,1-1.1,0.8-1.3c-0.1-0.2-0.6-0.3-0.7-0.5c-0.1-0.2,0.4-0.8,0.2-1
				c-0.1-0.2-0.7-0.2-0.9-0.4c-0.1-0.2,0.1-0.6,0-0.9c-0.1-0.2-1.3,0.2-1.4-0.1c-0.1-0.2-0.5-0.3-0.7-0.5c-0.1-0.2,1.3-1.4,1.1-1.6
				c-0.1-0.2-0.5-0.3-0.6-0.5s-0.2-0.5-0.3-0.7s-1.5,0.4-1.6,0.2s0-0.6-0.2-0.8c-0.1-0.2-1,0.1-1.2-0.1c-0.1-0.2,1.3-1.6,1.2-1.8
				c-0.2-0.2-0.8,0-1-0.2s0.2-0.8,0-1s-1.7,0.7-1.8,0.5c-0.2-0.2,1.1-1.6,0.9-1.7c-0.2-0.2-1.3,0.4-1.4,0.2
				c-0.2-0.2-0.9,0.1-1.1-0.1c-0.2-0.2-0.2-0.5-0.3-0.7c-0.2-0.2,0.2-0.9,0-1c-0.2-0.2-0.8,0.1-1-0.1c-0.2-0.2,0.6-1.3,0.4-1.5
				c-0.2-0.2-0.8,0.1-1-0.1c-0.2-0.2-0.8,0.1-1,0c-0.2-0.2,0.6-1.5,0.4-1.6c-0.2-0.2-0.7,0-0.9-0.2s-0.6-0.1-0.8-0.3s-0.8,0.3-1,0.1
				s-0.2-0.5-0.5-0.7c-0.2-0.1-0.3-0.4-0.6-0.5c-0.2-0.1-0.1-0.8-0.3-1c-0.2-0.1-0.5-0.2-0.7-0.3s-1.1,0.9-1.3,0.8
				c-0.2-0.1-0.3-0.5-0.5-0.7c-0.2-0.1-0.2-0.7-0.4-0.8s-0.6,0-0.8-0.1s-0.4-0.4-0.6-0.5c-0.2-0.1-0.9,0.8-1.1,0.8
				c-0.2-0.1,0-1.5-0.3-1.5c-0.2-0.1-0.5-0.3-0.7-0.3c-0.2-0.1-0.6,0.1-0.8,0s-0.5-0.3-0.7-0.3c-0.2-0.1-0.7,0.9-1,0.8
				c-0.2-0.1-0.4-0.7-0.6-0.7s-0.4-0.6-0.7-0.6s-0.6,0.6-0.8,0.6c-0.3,0-0.5,0.3-0.8,0.3S189,35,188.8,35c-0.3,0-0.5,0-0.7,0
				c-0.3,0-0.5,0.2-0.7,0.2c-0.3,0-0.5-1.5-0.8-1.5s-0.5,1.6-0.7,1.6c-0.3,0-0.6-1.4-0.8-1.3c-0.3,0-0.5,0.6-0.7,0.6
				c-0.3,0-0.4,0.8-0.7,0.9c-0.3,0-0.7-1.6-1-1.6s-0.5,0.3-0.7,0.3s-0.4,0.6-0.7,0.7c-0.2,0-0.5-0.1-0.8,0c-0.2,0.1-0.4,0.6-0.6,0.6
				c-0.2,0.1-0.8-1.1-1.1-1.1c-0.2,0.1-0.1,1.7-0.3,1.8s-0.7-0.5-0.9-0.4s-0.3,0.9-0.5,1s-0.6-0.2-0.8-0.1c-0.2,0.1-0.3,0.5-0.6,0.6
				c-0.2,0.1-0.5,0-0.8,0.1c-0.2,0.1-0.7-0.4-0.9-0.3c-0.2,0.1-0.1,1.1-0.3,1.2c-0.2,0.1-0.8-0.6-1-0.5s-0.2,0.8-0.4,0.9
				c-0.2,0.1-0.9-0.7-1.1-0.6c-0.2,0.1-0.5,0.2-0.7,0.3s-0.6-0.2-0.9,0c-0.2,0.1-0.4,0.4-0.6,0.5c-0.2,0.1-0.6,0-0.8,0.1
				s-0.1,0.9-0.3,1s-0.1,0.9-0.3,1s-0.3,0.5-0.5,0.6s-0.9-0.5-1.1-0.4c-0.2,0.1-0.6,0-0.8,0.2c-0.2,0.1-0.4,0.3-0.6,0.5
				c-0.2,0.1-0.6,0-0.8,0.1s-0.7-0.1-0.9,0s0.7,1.9,0.4,2.1s-1.1-0.7-1.3-0.6c-0.2,0.1,0.1,1.1-0.1,1.3c-0.2,0.1-0.4,0.3-0.6,0.4
				c-0.2,0.1-0.5,0.1-0.8,0.2c-0.2,0.1-0.6,0.1-0.8,0.2c-0.2,0.1-1.2-0.8-1.4-0.6c-0.2,0.1-0.1,0.7-0.3,0.8c-0.2,0.2-0.7,0-0.9,0.1
				c-0.2,0.2,0.6,1.6,0.4,1.7c-0.2,0.2-1-0.5-1.2-0.3s0,0.8-0.2,0.9c-0.2,0.2-0.6,0-0.8,0.2s0,0.8-0.2,0.9c-0.2,0.2-0.5,0.2-0.7,0.4
				s-0.3,0.5-0.5,0.6c-0.2,0.2-0.5,0.1-0.7,0.3s0,0.7-0.2,0.9s-0.4,0.3-0.6,0.5c-0.2,0.2-0.7,0-0.9,0.2s-1-0.4-1.2-0.2
				s-0.1,0.6-0.3,0.8s0.1,0.8-0.1,1c-0.2,0.2-0.7,0-0.9,0.2s-0.2,0.5-0.4,0.7s-0.5,0.3-0.6,0.4c-0.2,0.2-1.1-0.5-1.3-0.3
				s-0.3,0.4-0.5,0.6s-0.4,0.3-0.6,0.5c-0.2,0.2,0.4,1.1,0.2,1.3s-0.5,0.2-0.7,0.4s0.3,1,0.1,1.2s-1.4-0.7-1.6-0.5
				c-0.2,0.2,0.2,0.9,0,1.1c-0.2,0.2,0.1,0.8-0.1,1c-0.2,0.2-0.8,0-0.9,0.1c-0.2,0.2-0.3,0.4-0.5,0.6c-0.2,0.2-0.1,0.6-0.2,0.8
				c-0.2,0.2,0,0.7-0.2,0.9s-1.1-0.3-1.3-0.1s0.2,0.9,0,1c-0.2,0.2-1.1-0.4-1.3-0.2s-0.8-0.1-1,0.1c-0.2,0.2,0.9,1.6,0.8,1.7
				c-0.2,0.2-1-0.2-1.2,0s-0.4,0.3-0.6,0.5c-0.2,0.2-0.4,0.3-0.6,0.5c-0.2,0.2-0.5,0.2-0.7,0.4c-0.2,0.2,0.5,1.1,0.3,1.3
				c-0.2,0.2-1.2-0.4-1.4-0.2c-0.2,0.2,0.8,1.4,0.6,1.6s-0.8,0-0.9,0.2c-0.2,0.2,0,0.7-0.1,0.9c-0.2,0.2-0.9-0.1-1,0.1
				c-0.2,0.2-1.1-0.2-1.2,0c-0.2,0.2,0.4,1,0.3,1.2c-0.2,0.2-1-0.1-1.1,0c-0.2,0.2,0,0.6-0.2,0.8c-0.2,0.2,0.4,1,0.3,1.2
				c-0.2,0.2-1.3-0.4-1.5-0.2c-0.2,0.2,0.4,1,0.2,1.2s-0.5,0.2-0.7,0.4c-0.2,0.2,0,0.7-0.1,0.9c-0.2,0.2,0.1,0.8,0,1
				c-0.2,0.2-0.5,0.3-0.6,0.5c-0.2,0.2-1.6-0.6-1.8-0.4c-0.2,0.2,1.1,1.5,1,1.7c-0.2,0.2-1.5-0.5-1.6-0.3c-0.2,0.2,0.1,0.7-0.1,0.9
				c-0.2,0.2,0,0.7-0.1,0.9c-0.2,0.2-1.1-0.2-1.3,0c-0.2,0.2-0.1,0.6-0.3,0.8c-0.2,0.2,0.9,1.3,0.7,1.5c-0.2,0.2-1.2-0.2-1.3,0
				c-0.2,0.2-0.1,0.5-0.3,0.7c-0.2,0.2-0.5,0.3-0.6,0.5c-0.2,0.2,0.3,0.9,0.2,1.1c-0.2,0.2-0.3,0.4-0.4,0.6
				c-0.2,0.2-1.4-0.4-1.6-0.2c-0.2,0.2,0.8,1.2,0.7,1.4c-0.2,0.2-0.1,0.6-0.2,0.8c-0.2,0.2-0.6,0.2-0.7,0.4
				c-0.2,0.2-1.6-0.4-1.7-0.3c-0.3,0.4-0.3,1-0.2,1.3c0.1,0.4,0.2,0.5,0.3,0.9c0.2,0.3,1.5-0.2,1.6,0.1c0.2,0.3-0.7,0.7-0.6,1.1
				c0.2,0.3,0.1,0.4,0.2,0.7c0.2,0.3,1.3-0.2,1.4,0.2c0.2,0.3,0.2,0.3,0.3,0.7c0.2,0.3-0.6,0.7-0.4,1s0.9,0,1,0.4
				c0.2,0.3-0.3,0.6-0.2,0.9c0.2,0.3,0.7,0.1,0.8,0.5c0.2,0.3,0,0.4,0.2,0.8c0.2,0.3-0.3,0.5-0.1,0.9c0.2,0.3-0.3,0.6-0.2,0.9
				c0.2,0.3,0.6,0.1,0.8,0.5c0.2,0.3-0.5,0.7-0.4,1s1.3-0.2,1.4,0.2c0.2,0.3-0.6,0.7-0.4,1s-0.2,0.5-0.1,0.9
				c0.2,0.3-0.3,0.5-0.1,0.9c0.2,0.3,0.1,0.4,0.2,0.7c0.2,0.3,1.8-0.4,2-0.1s-1.6,1.1-1.4,1.5c0.2,0.3,0.2,0.3,0.4,0.7
				s0.6,0.1,0.8,0.5c0.2,0.3,0,0.4,0.2,0.7c0.2,0.3,0.2,0.3,0.4,0.7s0.1,0.4,0.3,0.7c0.2,0.3,1.5-0.3,1.7,0.1
				c0.2,0.3-0.2,0.5-0.1,0.9c0.2,0.3,0.1,0.4,0.3,0.7c0.2,0.3-0.4,0.6-0.3,1c0.2,0.3,0,0.4,0.2,0.8c0.2,0.3,0.4,0.2,0.5,0.6
				c0.2,0.3,1.2-0.1,1.4,0.2c0.2,0.3-0.8,0.8-0.6,1.1c0.2,0.3,0.3,0.3,0.5,0.6c0.2,0.3,0.8,0.1,0.9,0.4c0.2,0.3-1.3,1-1.2,1.4
				c0.2,0.3,0.1,0.4,0.2,0.7c0.2,0.3,1.6-0.3,1.7,0s-0.2,0.5,0,0.8s-0.4,0.7-0.1,1c0.2,0.3,0.5-1,1-0.9c0.2,0,0.2,1.7,0.5,1.7
				c0.2,0,0.5-0.2,0.8-0.2c0.2,0,0.6-0.9,0.9-0.8c0.2,0,0.3,1.3,0.6,1.4c0.2,0,0.5-0.4,0.8-0.3c0.2,0,0.6-1.4,0.9-1.3
				c0.2,0,0.4,0.5,0.7,0.6c0.2,0,0.5,0.4,0.7,0.5c0.2,0,0.5,0.5,0.7,0.5s0.6-0.6,0.8-0.5c0.2,0,0.4,0.9,0.7,0.9
				c0.2,0,0.5-0.2,0.8-0.2c0.2,0,0.6-1.1,0.8-1.1s0.4,1.4,0.7,1.4c0.2,0,0.6-0.9,0.8-0.9c0.3,0,0.5,0,0.8,0s0.4,1.4,0.7,1.5
				c0.3,0,0.5-0.1,0.8-0.1s0.6-0.9,0.8-0.8c0.3,0,0.4,1,0.7,1s0.6-1.1,0.8-1.1c0.3,0,0.5-0.6,0.8-0.6s0.5,1,0.7,1
				c0.3,0,0.5,0.1,0.8,0.1s0.6-1.2,0.8-1.2c0.3,0,0.4,1.4,0.7,1.4s0.5-1.1,0.8-1.1s0.5,0.5,0.7,0.5c0.3,0,0.5-0.2,0.8-0.2
				s0.5,0.2,0.8,0.2s0.5-0.5,0.8-0.5s0.5,0.3,0.8,0.3s0.5,0.4,0.8,0.4s0.5,0.6,0.8,0.6s0.5-1.5,0.8-1.5s0.5,1.5,0.8,1.5
				s0.5-1.5,0.8-1.5s0.5,1.6,0.8,1.6s0.5-1.6,0.7-1.6c0.3,0,0.5,0.3,0.8,0.3s0.5,1.4,0.8,1.4s0.5-1.5,0.7-1.5c0.3,0,0.5-0.2,0.8-0.2
				s0.5,1.3,0.8,1.3s0.5-0.6,0.7-0.6c0.3,0,0.5-0.1,0.8-0.1s0.5,0.6,0.8,0.6s0.5,0,0.8,0s0.4-1.4,0.7-1.4s0.5,0.5,0.8,0.5
				s0.6,1.1,0.8,1.1c0.3,0,0.4-1.4,0.7-1.4s0.6,0.9,0.8,0.8c0.3,0,0.4-1.2,0.7-1.2s0.6,0.8,0.8,0.7c0.3,0,0.5,0.4,0.8,0.4
				s0.5-0.1,0.8-0.2c0.3,0,0.6,0.6,0.8,0.6c0.3,0,0.4-1,0.7-1s0.5,0.4,0.8,0.3s0.5,0.3,0.8,0.2c0.3,0,0.3-1.4,0.6-1.5
				c0.3,0,0.6,0.9,0.9,0.9c0.3,0,0.4-0.6,0.7-0.6s0.6,0.7,0.9,0.7c0.3,0,0.3-1.3,0.6-1.4c0.3,0,0.6,0.3,0.8,0.3c0.3,0,0.5,0.1,0.8,0
				c0.3,0,0.6,0.8,0.9,0.8c0.3,0,0.3-1.2,0.6-1.3c0.3,0,0.4-0.5,0.7-0.6c0.3,0,0.7,0.8,0.9,0.8c0.3,0,0.5-0.3,0.7-0.4
				c0.3,0,0.4-0.7,0.6-0.7c0.3,0,0.7,0.8,0.9,0.8c0.3-0.1,0.4-0.4,0.7-0.5s0.5,0.1,0.8,0.1c0.2-0.1,0.6,0.2,0.8,0.2
				c0.2-0.1,0.5,0,0.8-0.1c0.2-0.1,0.5,0,0.8,0c0.2-0.1,0.1-1.6,0.4-1.7c0.2-0.1,0.9,1.6,1.2,1.6c0.2-0.1,0.3-0.8,0.6-0.9
				c0.2-0.1,0.3-0.7,0.6-0.8c0.2-0.1,0.9,1.2,1.1,1.1c0.2-0.1,0.3-0.8,0.5-0.8c0.2-0.1,0.6,0.2,0.8,0.1s0.3-0.7,0.5-0.8
				c0.2-0.1,0.5-0.1,0.8-0.2c0.2-0.1,0.7,0.6,1,0.5c0.2-0.1,0.2-1.1,0.4-1.2s0.4-0.4,0.6-0.5c0.2-0.1,1,1.1,1.2,1s0.4-0.3,0.7-0.4
				c0.2-0.1,0.2-0.8,0.5-0.9c0.2-0.1,0.2-0.7,0.5-0.9c0.2-0.1,0.8,0.5,1,0.4s0.3-0.5,0.5-0.7c0.2-0.1,0-1.1,0.3-1.2
				c0.2-0.1,1.2,1.3,1.4,1.2c0.2-0.1,0.4-0.4,0.6-0.5c0.2-0.1,0.3-0.6,0.5-0.7s-0.2-1.3,0-1.5c0.2-0.1,0.6,0.1,0.9,0
				c0.2-0.1,1,0.6,1.2,0.5s-0.2-1.2,0-1.4c0.2-0.1,0.5-0.1,0.7-0.3c0.2-0.1,1.3,0.9,1.5,0.7c0.2-0.2-0.4-1.4-0.2-1.5
				c0.2-0.2,0.5-0.2,0.7-0.4c0.2-0.2-0.1-0.9,0.1-1.1c0.2-0.2,1.7,1.2,1.9,1s-0.1-0.9,0.1-1.1c0.2-0.2,0.6-0.1,0.8-0.3
				c0.2-0.2,0.2-0.5,0.4-0.7s0.3-0.4,0.5-0.6s0.2-0.5,0.4-0.7s-0.2-0.9-0.1-1.1c0.2-0.2,0.4-0.3,0.5-0.5c0.2-0.2,0.1-0.6,0.2-0.8
				c0.2-0.2,0.9,0,1-0.2s0.4-0.3,0.6-0.5c0.1-0.2,0.5-0.3,0.7-0.5c0.1-0.2,0-0.6,0.2-0.8c0.1-0.2,0.5-0.3,0.6-0.5s-0.7-0.9-0.6-1.2
				c0.1-0.2,0.1-0.5,0.2-0.7c0.1-0.2,0.3-0.4,0.4-0.6c0.1-0.2,0.9-0.1,1-0.4c0.1-0.2-0.3-0.7-0.2-0.9c0.1-0.2-0.1-0.5,0-0.8
				c0.1-0.2,1.4-0.1,1.4-0.3c0.1-0.2-0.6-0.7-0.6-1c0.1-0.2-0.2-0.6-0.2-0.8c0.1-0.2-0.2-0.5-0.1-0.8c0.1-0.2,0.1-0.5,0.2-0.7
				c0-0.2,0.5-0.4,0.5-0.7c0-0.2,1.4-0.3,1.4-0.6c0-0.3,0.3-0.5,0.3-0.8s-1.9-0.7-1.9-0.9c0-0.3,0.8-0.4,0.8-0.7
				c0-0.3,0.2-0.5,0.2-0.7c0-0.3,0.2-0.5,0.2-0.8s-0.3-0.5-0.3-0.8s-0.8-0.5-0.8-0.7c0-0.3,0.3-0.5,0.3-0.8s0.5-0.5,0.5-0.8
				s0.3-0.5,0.2-0.8c0-0.3,0-0.5,0-0.8s0.2-0.5,0.2-0.8c0-0.2-1.5-0.3-1.6-0.5c0-0.2,1.3-0.7,1.3-1c0-0.2-0.9-0.4-0.9-0.6
				s0.6-0.6,0.6-0.9c0-0.2,0.3-0.6,0.2-0.8c-0.1-0.2-1.6-0.2-1.6-0.4c-0.1-0.2,1.1-0.8,1.1-1c-0.1-0.2,0.3-0.6,0.3-0.9
				c-0.1-0.2-0.8-0.3-0.8-0.6c-0.1-0.2,0.5-0.7,0.5-0.9c-0.1-0.2-0.7-0.3-0.8-0.6c-0.1-0.2-0.2-0.5-0.3-0.7s-0.6-0.3-0.7-0.6
				c-0.1-0.2-0.6-0.3-0.7-0.6c-0.1-0.2,0.7-0.8,0.6-1c-0.1-0.2,0.1-0.6,0.1-0.8c-0.1-0.2-0.2-0.5-0.3-0.7s-1.8,0.1-1.9-0.1
				c-0.1-0.2,1.3-1.1,1.3-1.3c-0.1-0.2-0.4-0.4-0.5-0.6s-0.4-0.4-0.5-0.6s-1.3,0-1.4-0.3c-0.1-0.2-0.1-0.5-0.2-0.7
				c-0.1-0.2,0.3-0.7,0.2-0.9C219.2,61.8,219.9,61.2,219.8,61z"/>
		</g>
		<g>
			<path class="st1" d="M105.2,145.5c0.4,0,0.2-0.9,0.7-0.9c0.2,0,0.4-1.3,0.7-1.3c0.2,0,0.6,1.8,0.8,1.8c0.2,0,0.4-1.1,0.7-1.1
				c0.2,0,0.6,1.9,0.9,1.9c0.2,0,0.5-0.7,0.7-0.8c0.2,0,0.4-1.5,0.7-1.5c0.2,0,0.6,0.8,0.8,0.7c0.2,0,0.6,0.6,0.8,0.6
				c0.2,0,0.3-2.2,0.6-2.2c0.2,0,0.6,1,0.8,1c0.2,0,0.4-0.7,0.7-0.7c0.2,0,0.8,2.8,1,2.8s0.2-3.2,0.4-3.3c0.2,0,0.6,1,0.9,1
				c0.2,0,0.4-1,0.6-1.1c0.2,0,0.8,2.3,1,2.3s0.6,0.3,0.8,0.3c0.2,0,0.4-0.7,0.7-0.8c0.2,0,0.5-0.5,0.7-0.5s0.5-0.4,0.7-0.4
				c0.3,0,0.7,1.6,1,1.6c0.2,0,0.3-1.6,0.5-1.6s0.5,0.1,0.8,0c0.2,0,0.3-1.4,0.5-1.4s0.7,1.2,1,1.2c0.2,0,0.4-0.6,0.7-0.6
				c0.2,0,0.7,1.1,1,1.1c0.2,0,0.3-1.1,0.6-1.2c0.2,0,0.3-1.1,0.6-1.2c0.2,0,0.5,0,0.8,0c0.2,0,0.9,2.1,1.2,2.1
				c0.2-0.1,0.1-1.9,0.4-1.9c0.2-0.1,0.7,0.8,0.9,0.8c0.2-0.1,0.6,0.3,0.8,0.2s0.1-1.7,0.4-1.8c0.2-0.1,0.7,0.7,0.9,0.7
				c0.2-0.1,0.2-1.5,0.4-1.6s0.8,1.1,1,1s0.2-1.4,0.4-1.4c0.2-0.1,0.9,1.3,1.1,1.2c0.2-0.1,0.2-1.2,0.4-1.3s0.8,1.1,1.1,1
				c0.2-0.1,0.5-0.3,0.7-0.3c0.2-0.1,0.8,1,1.1,0.9c0.2-0.1-0.2-2.5,0.1-2.5c0.2-0.1,0.7,0.6,1,0.6c0.2-0.1,0.8,0.9,1,0.8
				c0.2-0.1,0.5,0,0.8-0.1c0.2-0.1,0.2-0.9,0.5-1c0.2-0.1,0.8,0.9,1.1,0.8c0.2-0.1-0.3-2.4,0-2.5c0.2-0.1,0.7,0.4,0.9,0.4
				c0.2-0.1,0.2-0.9,0.5-1c0.2-0.1,1.2,1.8,1.4,1.7s-0.1-1.7,0.2-1.8c0.2-0.1,0.6,0.1,0.8,0s1,1.1,1.2,1s0.4-0.4,0.6-0.5
				c0.2-0.1-0.2-1.7,0.1-1.8c0.2-0.1,0.4-0.3,0.6-0.4c0.2-0.1,1,1,1.2,0.9s1.1,1.2,1.3,1.1c0.2-0.1,0.3-0.5,0.6-0.6
				c0.2-0.1-0.1-1.4,0.2-1.5c0.2-0.1,0.1-1.1,0.3-1.2c0.2-0.1,0.7,0.3,0.9,0.2s1.1,1.1,1.4,1c0.2-0.1,0.1-0.8,0.4-1
				c0.2-0.1,0-1.1,0.2-1.2c0.2-0.1,1.2,1.2,1.4,1.1c0.2-0.1,0.3-0.6,0.5-0.7c0.2-0.1,0.4-0.3,0.6-0.4c0.2-0.1,0.4-0.3,0.6-0.5
				c0.2-0.1-0.2-1.4,0-1.5s1.5,1.4,1.7,1.3c0.2-0.1-0.9-2.4-0.7-2.5s1.8,1.8,2,1.7s0.6-0.1,0.8-0.2c0.2-0.1-0.4-1.5-0.2-1.7
				c0.2-0.1-0.3-1.2,0-1.4c0.2-0.1,1.4,1.2,1.7,1c0.2-0.1,0.2-0.6,0.4-0.7c0.2-0.2,0.8,0.2,1,0s0.7,0.1,0.9-0.1s-1.2-2.3-1-2.5
				s0.7,0,0.8-0.1c0.2-0.2,0.4-0.3,0.6-0.5c0.2-0.2,1,0.4,1.2,0.2c0.2-0.2,0.2-0.6,0.3-0.8c0.2-0.2,1.2,0.5,1.3,0.3
				c0.2-0.2,0.6-0.1,0.8-0.3c0.2-0.2-1.3-2.1-1.1-2.2s1.6,0.8,1.7,0.6c0.2-0.2-0.1-0.8,0-1c0.2-0.2-0.4-1-0.2-1.2s1.7,0.8,1.9,0.6
				c0.2-0.2,0.9,0.1,1.1-0.1c0.2-0.2-0.5-1.1-0.3-1.3c0.2-0.2,0.6-0.2,0.7-0.4c0.2-0.2,0.3-0.5,0.4-0.7c0.2-0.2,0.1-0.6,0.3-0.8
				c0.2-0.2,1.4,0.4,1.5,0.2c0.1-0.2-0.6-1.1-0.5-1.3c0.1-0.2,1.1,0.1,1.2-0.1c0.1-0.2-0.6-1-0.4-1.2c0.1-0.2,1.1,0,1.2-0.2
				c0.1-0.2-1.1-1.2-0.9-1.4c0.1-0.2,0.1-0.6,0.2-0.8c0.1-0.2-0.3-0.7-0.2-0.9c0.1-0.2,0.8-0.1,0.9-0.4c0.1-0.2-0.8-1-0.7-1.2
				s0.8-0.2,0.9-0.4c0.1-0.2,0-0.6,0.1-0.8c0.1-0.2,0.8-0.2,0.9-0.4c0.1-0.2-0.7-0.8-0.6-1c0.1-0.2,3,0.6,3.1,0.4s-0.8-0.9-0.7-1.1
				s1-0.2,1.1-0.5c0.1-0.2-0.9-0.8-0.8-1.1c0.1-0.2,0.2-0.5,0.2-0.7c0.1-0.2,0.9-0.3,1-0.5s-2.2-1.1-2.1-1.3c0.1-0.2,2-0.1,2-0.3
				c0.1-0.2-1.9-0.9-1.8-1.2c0.1-0.2,1.3-0.3,1.3-0.5s0.9-0.4,0.9-0.6c0-0.3,0-0.5,0-0.8s1-0.4,1-0.6c0-0.3-2.1-0.8-2-1
				c0-0.3,0.5-0.5,0.5-0.7c0-0.3,0.2-0.5,0.2-0.7c0-0.3,0.9-0.4,0.9-0.7c0-0.3,0.4-0.5,0.4-0.8s-2.4-0.6-2.3-0.9
				c0-0.3,1.7-0.4,1.7-0.7c0-0.3-1.5-0.5-1.5-0.8s1-0.5,1-0.8s1.3-0.5,1.3-0.8s-1.1-0.5-1.1-0.8s-1.4-0.4-1.5-0.7
				c0-0.3,2.7-0.6,2.6-0.9c0-0.3-1.1-0.5-1.1-0.7c0-0.3,0.3-0.5,0.2-0.8c0-0.3-0.1-0.5-0.1-0.8s-2-0.4-2-0.6c0-0.3,1.9-0.7,1.9-0.9
				c0-0.3,0-0.5,0-0.8s0.7-0.6,0.7-0.8c0-0.3-3-0.2-3.1-0.4c0-0.3,0.1-0.5,0-0.8c0-0.3,2.2-0.8,2.2-1c0-0.3-1-0.4-1-0.6
				c0-0.3,0.1-0.5,0.1-0.8s1.4-0.7,1.4-1s-2.1-0.2-2.1-0.5s-1-0.4-1.1-0.6c0-0.3,1.2-0.7,1.2-1s-1.1-0.3-1.2-0.6
				c0-0.3,2.2-0.9,2.2-1.2c0-0.3-2-0.1-2.1-0.4c0-0.3,1.9-0.9,1.9-1.1c0-0.3-1-0.3-1-0.6c-0.1-0.2,0-0.5,0-0.8
				c-0.1-0.2-1.1-0.3-1.1-0.5c-0.1-0.2,0.6-0.7,0.6-0.9c-0.1-0.2-0.7-0.4-0.7-0.6c-0.1-0.2,0.8-0.7,0.8-1c-0.1-0.2-1.7-0.1-1.8-0.3
				c-0.1-0.2,1.4-0.9,1.3-1.1c-0.1-0.2-1.7-0.1-1.7-0.3c-0.1-0.2,0-0.5-0.1-0.8c-0.1-0.2-0.7-0.3-0.7-0.6c-0.1-0.2,0.8-0.8,0.7-1
				s0.4-0.7,0.3-0.9c-0.1-0.2,1.2-0.9,1.1-1.2c-0.1-0.2-0.3-0.5-0.3-0.7c-0.1-0.2-1.2-0.1-1.3-0.4c-0.1-0.2,0.2-0.6,0.1-0.8
				c-0.1-0.2-1.8,0.1-1.9-0.1c-0.1-0.2,1.3-1,1.2-1.2s-1.8,0.1-1.9-0.1c-0.1-0.2-0.3-0.4-0.4-0.7c-0.1-0.2,1.2-1,1.1-1.2
				c-0.1-0.2-1.7,0.1-1.8-0.1c-0.1-0.2-0.1-0.5-0.2-0.7c-0.1-0.2,0.7-0.9,0.6-1.1c-0.1-0.2,0.2-0.6,0.1-0.9c-0.1-0.2,0.6-0.8,0.5-1
				s0.4-0.8,0.3-1c-0.1-0.2-1.6,0.2-1.7-0.1c-0.1-0.2,0-0.6-0.1-0.8s0.1-0.6,0-0.9c-0.1-0.2-0.8-0.2-0.9-0.4
				c-0.1-0.2,0.6-0.9,0.5-1.1c-0.1-0.2-0.2-0.5-0.3-0.7s-0.3-0.4-0.4-0.7c-0.1-0.2-1.8,0.4-2,0.2c-0.1-0.2,1-1.1,0.9-1.4
				c-0.1-0.2-0.6-0.3-0.7-0.5c-0.1-0.2-1.6,0.4-1.8,0.1c-0.1-0.2-0.4-0.3-0.5-0.5s2.1-1.9,2-2.1c-0.1-0.2-0.7-0.2-0.8-0.4
				s0-0.6-0.2-0.8c-0.1-0.2-0.6-0.2-0.7-0.5c-0.1-0.2-0.4-0.4-0.5-0.6c-0.1-0.2-2,0.7-2.1,0.5s1.5-1.6,1.3-1.8
				c-0.1-0.2-1.6,0.5-1.8,0.3c-0.1-0.2,0.5-1,0.4-1.2s-1.7,0.6-1.8,0.4c-0.2-0.2,1.4-1.7,1.2-1.9s-0.2-0.5-0.3-0.7
				c-0.2-0.2,0.4-1,0.2-1.2s-1.9,0.8-2,0.6c-0.2-0.2-0.3-0.4-0.4-0.6c-0.2-0.2-0.5-0.3-0.6-0.5c-0.2-0.2-0.7,0-0.9-0.2
				s1.1-1.6,0.9-1.8c-0.2-0.2-1,0.2-1.2,0s-1.5,0.7-1.6,0.5c-0.2-0.2,2-2.5,1.8-2.7s-2,1.2-2.2,1s0.4-1.1,0.2-1.2
				c-0.2-0.2-0.9,0.2-1.1,0c-0.2-0.2,0.1-0.9,0-1c-0.2-0.2-0.4-0.3-0.6-0.5c-0.2-0.2,0.6-1.3,0.4-1.5c-0.2-0.2-0.5-0.3-0.6-0.4
				c-0.2-0.2-2.3,1.7-2.5,1.6c-0.2-0.2,0.3-1.1,0.2-1.3c-0.2-0.2-1.2,0.6-1.4,0.4s0.9-1.8,0.7-1.9c-0.2-0.2,0.1-0.9-0.1-1.1
				c-0.2-0.2-1.7,1.2-1.9,1s0.2-1.1,0.1-1.3c-0.2-0.2,0.4-1.3,0.2-1.4c-0.2-0.2-0.5-0.2-0.7-0.4c-0.2-0.2-1,0.4-1.2,0.3
				c-0.2-0.2,0-0.9-0.2-1c-0.2-0.2-0.8,0.2-1,0s-1.4,1.1-1.6,0.9c-0.2-0.1,0.8-2,0.6-2.2c-0.2-0.1-1.7,1.5-1.9,1.3s-0.2-0.6-0.4-0.7
				s1-2.4,0.8-2.5s-2,2.1-2.2,2s0.7-2,0.5-2.1s-0.8,0.3-1,0.1c-0.2-0.1-1,0.6-1.2,0.5s0.5-1.8,0.3-1.9s-1.5,1.6-1.8,1.5
				s-0.1-0.7-0.4-0.9c-0.2-0.1,0.6-2.1,0.4-2.3c-0.2-0.1-0.9,0.5-1.1,0.4c-0.2-0.1-1.3,1.3-1.5,1.2c-0.2-0.1,0.3-1.6,0-1.7
				c-0.2-0.1-1.1,1-1.3,0.9s-0.4-0.4-0.6-0.5c-0.2-0.1-0.5-0.1-0.8-0.2c-0.2-0.1-0.2-0.7-0.4-0.8s0.3-1.8,0.1-1.9
				c-0.2-0.1-0.8,0.5-1,0.4s-1.2,1.3-1.4,1.2s0.1-1.4-0.1-1.6c-0.2-0.1-0.3-0.6-0.5-0.7c-0.2-0.1-0.4-0.4-0.6-0.5
				c-0.2-0.1-0.4-0.4-0.6-0.5c-0.2-0.1-0.9,0.8-1.1,0.7c-0.2-0.1-0.8,0.7-1.1,0.7c-0.2-0.1,0-1.3-0.2-1.4c-0.2-0.1,0.1-1.6-0.2-1.7
				c-0.2-0.1-0.9,0.9-1.1,0.8c-0.2-0.1-1.1,1.5-1.3,1.4s0.3-2.3,0.1-2.4c-0.2-0.1-0.7,0.4-0.9,0.3c-0.2-0.1-0.4-0.4-0.6-0.5
				s-0.6,0.2-0.8,0.1c-0.2-0.1-0.2-1.2-0.4-1.3c-0.2-0.1-1.2,2.1-1.4,2c-0.2-0.1,0.1-2.2-0.1-2.2c-0.2-0.1-0.4-0.6-0.6-0.7
				S122.9,7,122.6,7c-0.2-0.1-0.5-0.2-0.7-0.3c-0.2-0.1-1.2,2.7-1.5,2.6c-0.2-0.1-0.5-0.1-0.7-0.1c-0.2-0.1,0.2-3,0-3.1s-0.8,1-1,1
				C118.5,7,118.2,7,117.9,7c-0.2-0.1-0.5-0.2-0.7-0.3c-0.2-0.1-0.8,1.4-1.1,1.3c-0.2-0.1-0.4-0.4-0.7-0.5c-0.2,0-0.2-1.8-0.4-1.9
				c-0.3,0-0.6,0.2-0.8,0.2c-0.3,0-0.8,1.6-1,1.5c-0.3,0-0.3-1.1-0.6-1.1c-0.3,0-0.7,1.3-1,1.3s-0.2-2-0.5-2.1c-0.3,0-0.8,1.7-1,1.7
				c-0.3,0-0.3-1.9-0.5-1.9c-0.3,0-0.6,0.7-0.8,0.7c-0.3,0-0.4-1.1-0.6-1.1c-0.3,0-0.7,1.7-0.9,1.7c-0.3,0-0.6,0.6-0.8,0.6
				c-0.3,0-0.4-0.7-0.7-0.7c-0.3,0-0.3-2.4-0.6-2.4c-0.3,0-0.6,1.8-0.9,1.8s-0.5,0.1-0.8,0.1s-0.4-1.7-0.7-1.7
				c-0.3,0-0.5,0.9-0.8,0.9s-0.5,0.3-0.8,0.3s-0.5,1.5-0.8,1.5s-0.5-2.2-0.8-2.2s-0.5-0.3-0.8-0.3S98.4,6.9,98.1,7
				c-0.3,0-0.5-1-0.8-1s-0.6-1.3-0.8-1.3c-0.3,0-0.5,0.4-0.7,0.4S95.5,6.9,95.2,7c-0.2,0-0.7-2-1-2c-0.2,0-0.3,1.4-0.6,1.4
				c-0.2,0-0.5,0.3-0.7,0.4c-0.2,0-0.4,0.8-0.6,0.8s-0.5-0.3-0.8-0.2c-0.2,0-0.9-2.2-1.1-2.2S89.8,4.9,89.6,5
				c-0.2,0-0.4,0.5-0.7,0.5c-0.2,0-0.5,0-0.8,0c-0.2,0-0.1,2.3-0.3,2.3c-0.2,0.1-0.8-1.1-1-1.1C86.6,7,86.2,6.5,86,6.6
				s-0.3,1.1-0.5,1.2c-0.2,0.1-0.4,0.7-0.6,0.7c-0.2,0.1-1-2-1.3-1.9c-0.2,0.1,0.2,2.9,0,2.9c-0.2,0.1-0.7-0.7-1-0.6
				c-0.2,0.1-1.1-2.1-1.3-2c-0.2,0.1,0,1.9-0.2,2s-0.3,0.7-0.6,0.8c-0.2,0.1-0.7-0.7-1-0.6c-0.2,0.1-0.6-0.2-0.8-0.1
				c-0.2,0.1-0.4,0.4-0.7,0.5c-0.2,0.1-0.3,0.8-0.5,0.9c-0.2,0.1-1.1-1.7-1.4-1.6c-0.2,0.1,0.4,2.6,0.1,2.6c-0.2,0.1-0.5,0-0.8,0.1
				c-0.2,0.1-0.8-0.6-1-0.5s-0.9-0.9-1.1-0.8c-0.2,0.1,0.4,2.3,0.1,2.4c-0.2,0.1-0.4,0.2-0.7,0.3c-0.2,0.1-0.6-0.1-0.8,0
				c-0.2,0.1-1.4-2.1-1.7-2c-0.2,0.1,0,1.3-0.2,1.4c-0.2,0.1-0.6-0.2-0.9-0.1c-0.2,0.1,0.4,2.2,0.2,2.3c-0.2,0.1-1.5-2-1.7-1.9
				s0.3,1.9,0.1,2c-0.2,0.1-1.4-1.7-1.6-1.6c-0.2,0.1,0.2,1.6,0,1.8c-0.2,0.1-0.7-0.2-0.9-0.1c0.1,0.3-0.2,0.3-0.4,0.4
				s-0.2,0.8-0.4,0.9c-0.2,0.1-0.6,0-0.8,0.1s-0.2,0.7-0.4,0.8c-0.2,0.1-0.6-0.1-0.9,0c-0.2,0.1-0.6,0-0.8,0.1s0,1.1-0.2,1.2
				S60,16.9,59.7,17c-0.2,0.1,0.2,1.4,0,1.5s-0.9-0.5-1.1-0.4c-0.2,0.1-0.3,0.4-0.6,0.6c-0.2,0.1-0.2,0.7-0.4,0.8
				c-0.2,0.1,0.2,1.2,0,1.4c-0.2,0.1-2-2-2.2-1.9s-0.6,0.1-0.8,0.2s0.9,2.2,0.7,2.3c-0.2,0.1-1.8-1.6-2-1.5s1.2,2.5,1,2.7
				c-0.2,0.1-1.4-1-1.6-0.9c-0.2,0.2-0.3,0.5-0.5,0.6c-0.2,0.2-0.7,0-0.9,0.1c-0.2,0.2,0.6,1.6,0.4,1.7c-0.2,0.2-1.8-1.5-2-1.4
				c-0.2,0.2-0.4,0.3-0.6,0.5c-0.2,0.2,0.6,1.5,0.4,1.6c-0.2,0.2-0.8-0.2-1-0.1c-0.2,0.2,0,0.8-0.2,1S47,25,46.8,25.2
				c-0.2,0.2,0.6,1.5,0.4,1.6c-0.2,0.2,0.3,1.1,0.1,1.3c-0.2,0.2-0.4,0.3-0.6,0.5c-0.2,0.2,0.1,0.8-0.1,1c-0.2,0.2-0.8-0.1-1,0
				c-0.2,0.2,0.1,0.8-0.1,1C45.3,31,45,31,44.8,31.2s-0.8-0.1-1,0.1s-0.5,0.2-0.7,0.4c-0.2,0.2,0.5,1.1,0.3,1.3s-1.9-1-2-0.9
				c-0.2,0.2-0.2,0.5-0.4,0.7s1,1.6,0.8,1.8s-2-1.1-2.1-0.9c-0.2,0.2-0.3,0.4-0.5,0.6c-0.2,0.2,1,1.5,0.9,1.7
				c-0.2,0.2-0.5,0.2-0.7,0.4s-1.4-0.5-1.5-0.3c-0.2,0.2-0.3,0.4-0.5,0.6c-0.2,0.2-0.5,0.2-0.7,0.4s0.4,0.9,0.2,1.1
				c-0.2,0.2-0.8,0-1,0.2s1,1.4,0.9,1.6c-0.1,0.2-1.5-0.4-1.6-0.2s-1.2-0.2-1.3,0s1.6,1.7,1.5,1.9s-1.2-0.2-1.3,0s-0.3,0.4-0.4,0.6
				c-0.1,0.2-0.2,0.5-0.3,0.7s-1.3-0.2-1.4,0c-0.1,0.2-0.3,0.4-0.4,0.7c-0.1,0.2,1.7,1.6,1.6,1.8s-0.4,0.4-0.5,0.6
				c-0.1,0.2-0.1,0.5-0.2,0.8c-0.1,0.2-0.8,0.1-0.9,0.4c-0.1,0.2,0.5,0.8,0.4,1.1c-0.1,0.2-1.7-0.3-1.8-0.1
				c-0.1,0.2-0.2,0.5-0.3,0.7c-0.1,0.2-0.8,0.2-0.9,0.4s1.6,1.3,1.4,1.6c-0.1,0.2-0.8,0.2-0.9,0.4s-0.3,0.4-0.4,0.7
				c-0.1,0.2-1.6-0.2-1.7,0.1c-0.1,0.2,1.8,1.3,1.7,1.6c-0.1,0.2,0.2,0.6,0.1,0.8s-1.9-0.2-2,0C27,54.9,26,54.8,25.9,55
				s1.5,1.1,1.4,1.4c-0.1,0.2-1.6-0.1-1.6,0.2c-0.1,0.2,2.2,1.4,2.1,1.6c-0.1,0.2-2.9-0.5-3-0.3s-0.3,0.5-0.3,0.7
				c-0.1,0.2-0.1,0.5-0.2,0.7s1.2,0.9,1.1,1.2c-0.1,0.2,0.4,0.7,0.4,0.9c-0.1,0.2,0.1,0.5,0,0.8c-0.1,0.2-1.8,0-1.8,0.2
				c-0.1,0.2,0.5,0.7,0.4,0.9S24.1,63.7,24,64c-0.1,0.2,0,0.5-0.1,0.8c-0.1,0.2,1.1,0.8,1,1.1c-0.1,0.2-1.4,0.2-1.4,0.4
				C23.4,66.5,24,67,24,67.2c-0.1,0.2,0,0.5,0,0.8c-0.1,0.2-0.3,0.4-0.4,0.7c-0.1,0.2,0.5,0.6,0.5,0.9c-0.1,0.2,0.1,0.5,0.1,0.8
				c-0.1,0.2-1.3,0.3-1.3,0.5s1,0.7,1,1c0,0.2-1.9,0.2-1.9,0.4c0,0.2,1.1,0.7,1,1c0,0.3,0.6,0.6,0.5,0.9c0,0.3-0.5,0.4-0.5,0.7
				c0,0.3-1.6,0.3-1.6,0.5c0,0.3,0.3,0.6,0.2,0.8c0,0.3-1,0.4-1.1,0.6c0,0.3,0.9,0.6,0.8,0.9c0,0.3,1.3,0.7,1.3,0.9
				c0,0.3-1.1,0.4-1.1,0.6c0,0.3,0.4,0.6,0.4,0.8c0,0.3,0.1,0.5,0.1,0.8s-1.4,0.4-1.4,0.6c0,0.3-0.8,0.5-0.8,0.7
				c0,0.3,0.5,0.6,0.5,0.8c0,0.3,2.3,0.7,2.3,0.9c0,0.3-1,0.4-1,0.7c0,0.3-0.6,0.5-0.6,0.7c0,0.3-0.1,0.5-0.1,0.8s-1.3,0.5-1.3,0.7
				c0,0.3,2.7,0.6,2.7,0.8c0,0.3-0.5,0.5-0.5,0.7c0,0.3-2.4,0.5-2.4,0.7c0,0.3,2.1,0.5,2.1,0.8s0.9,0.5,0.9,0.8s-0.6,0.5-0.6,0.8
				s-2.4,0.5-2.4,0.8s0.5,0.5,0.5,0.8s2.3,0.5,2.3,0.7c0,0.3-0.9,0.5-0.9,0.8s1.1,0.5,1.1,0.7s-1.8,0.6-1.8,0.8c0,0.3-1.1,0.6-1,0.8
				c0,0.3,1.1,0.5,1.1,0.7c0,0.3,2,0.4,2,0.6c0,0.3-2.1,0.7-2.1,0.9c0,0.3,0.3,0.5,0.4,0.7c0,0.3,0.9,0.4,0.9,0.7
				c0,0.3,0,0.5,0.1,0.8c0,0.3,0.6,0.4,0.6,0.7c0,0.3,0.3,0.5,0.3,0.7c0,0.3-2,0.8-1.9,1.1c0,0.3,2.4,0.1,2.5,0.3
				c0,0.3-2.7,1-2.6,1.3s0.7,0.4,0.7,0.6c0.1,0.3,1.4,0.2,1.4,0.5c0.1,0.2,0.7,0.3,0.7,0.6c0.1,0.2-1.6,1-1.6,1.2
				c0.1,0.2,0.2,0.5,0.3,0.7c0.1,0.2,1.7,0,1.8,0.3c0.1,0.2,0.1,0.5,0.2,0.7s-2.3,1.3-2.2,1.6c0.1,0.2,3-0.5,3.1-0.3
				s-2.7,1.6-2.7,1.8c0.1,0.2,0.8,0.3,0.9,0.5s-0.2,0.7-0.1,0.9c0.1,0.2,2.1-0.4,2.2-0.1c0.1,0.2-0.8,0.9-0.7,1.2
				c0.1,0.2,1.4-0.1,1.5,0.1s0.9,0.1,1,0.3c0.1,0.2,0.2,0.4,0.3,0.7c0.1,0.2-0.8,1-0.7,1.2c0.1,0.2-0.7,1-0.5,1.2
				c0.1,0.2-0.4,0.9-0.2,1.1c0.1,0.2,0.9,0.1,1,0.3s1,0,1.1,0.2s0.9,0,1.1,0.2c0.1,0.2-1.5,1.7-1.3,1.9c0.2,0.2,0.6,0.2,0.8,0.4
				c0.2,0.2,0.5,0.3,0.7,0.5s-0.3,0.9-0.1,1.1c0.2,0.2,2-1,2.2-0.8s-1,1.6-0.8,1.8c0.2,0.2,0.5,0.3,0.6,0.5c0.2,0.2,0.5,0.3,0.7,0.4
				c0.2,0.2,1.2-0.4,1.4-0.3c0.2,0.2,0.5,0.2,0.7,0.3c0.2,0.2,0.9-0.3,1.1-0.1c0.2,0.2-1.7,2.6-1.5,2.8s0.6,0.1,0.8,0.3
				s0.5,0.2,0.7,0.4s1-0.4,1.2-0.2s0.8-0.2,1,0s1.1-0.6,1.3-0.4c0.2,0.2-1.4,2.6-1.2,2.8s0.4,0.4,0.6,0.5c0.2,0.1,1.8-1.6,2-1.4
				c0.2,0.1,0.2,0.5,0.4,0.7c0.2,0.1,0.3,0.4,0.6,0.5c0.2,0.1-0.5,1.7-0.3,1.9c0.2,0.1,0.3,0.5,0.5,0.6s1.6-1.7,1.8-1.5
				c0.2,0.1,0,0.9,0.3,1.1c0.2,0.1-0.4,1.7-0.1,1.8c0.2,0.1,1.1-0.9,1.3-0.8c0.2,0.1,0.8-0.3,1-0.2s0.5,0.2,0.7,0.3
				s-0.1,1.4,0.1,1.5s0.3,0.5,0.6,0.6c0.2,0.1,1.6-2.2,1.8-2.1c0.2,0.1-0.3,1.8-0.1,1.9c0.2,0.1,1.1-1.2,1.3-1.1
				c0.2,0.1-0.1,1.4,0.2,1.5c0.2,0.1,0.1,1.1,0.3,1.2c0.2,0.1,0.6-0.2,0.9-0.1c0.2,0.1,0.4,0.5,0.6,0.6c0.2,0.1,0.8-0.5,1-0.5
				c0.2,0.1,0.7-0.3,0.9-0.2s0.7-0.6,1-0.5c0.2,0.1,0,1.7,0.2,1.7c0.2,0.1,0.7-0.5,0.9-0.4s0,1.7,0.2,1.8s0.4,0.4,0.7,0.5
				c0.2,0.1,0.5,0,0.8,0.1c0.2,0.1,0.6-0.1,0.8-0.1c0.2,0.1,0.4,0.5,0.6,0.6s0.8-1.1,1.1-1c0.2,0.1,0.5,0,0.8,0.1
				c0.2,0.1,0.6-0.1,0.8-0.1c0.2,0.1,0.1,1.5,0.4,1.6c0.2,0.1,0.5,0.3,0.7,0.3c0.2,0.1,1.2-2.7,1.4-2.6c0.2,0.1,0.2,1.2,0.5,1.3
				c0.2,0.1,0.4,0.4,0.7,0.4c0.3,0.1,0.6-0.4,0.9-0.3c0.3,0.1,0.4,0.4,0.7,0.4c0.3,0.1,0.3,1.1,0.6,1.1c0.3,0,0.8-1.5,1-1.4
				c0.3,0,0.1,2.2,0.4,2.2s0.9-2.2,1.2-2.2c0.3,0,0.4,0.9,0.6,1c0.3,0,0.3,1.3,0.6,1.3c0.3,0,0.7-0.9,0.9-0.9c0.3,0,0.6-0.8,0.9-0.8
				s0.2,1.9,0.5,1.9s0.5,0.4,0.7,0.4c0.3,0,0.5,0.2,0.8,0.2s0.5,0.1,0.8,0.1s0.8-2.5,1.1-2.5c0.3,0,0.5,0.5,0.7,0.5
				c0.3,0,0.5,0.1,0.8,0.1s0.6-0.6,0.8-0.6c0.3,0,0.3,1.8,0.6,1.8c0.3,0,0.6-1,0.9-0.9c0.3,0,0.5-0.4,0.8-0.4s0.4,1.5,0.6,1.5
				c0.3,0,0.6-1.6,0.9-1.6s0.4,1.2,0.7,1.2c0.3,0,0.6-0.6,0.8-0.6c0.3,0,0.4,1.7,0.7,1.7c0.3,0,0.5,0.1,0.8,0.2
				c0.3,0,0.6-1.5,0.8-1.5c0.3,0,0.5,1,0.7,1c0.3,0,0.6-1.2,0.8-1.1c0.3,0,0.5,0.8,0.7,0.8c0.3,0,0.5-0.5,0.8-0.5s0.5,1.1,0.7,1.1
				c0.3,0,0.5-1.1,0.8-1.1s0.5,0.1,0.8,0.1s0.5-0.7,0.8-0.7s0.5,0.4,0.8,0.4s0.5,0.7,0.8,0.7s0.5-0.9,0.8-0.9s0.5,1.6,0.8,1.6
				s0.5-0.9,0.7-0.9c0.3,0,0.5-0.6,0.7-0.6c0.3,0,0.6,1.3,0.8,1.3c0.3,0,0.5,0.3,0.8,0.3s0.5-0.8,0.7-0.8c0.3,0,0.5-0.7,0.7-0.7
				c0.3,0,0.6,1.3,0.8,1.3c0.3,0,0.4-2.2,0.6-2.3c0.3,0,0.5,0,0.8,0s0.7,2.5,0.9,2.5c0.3,0,0.6,0,0.8,0
				C105.1,146.1,104.9,145.5,105.2,145.5z"/>
			<path class="st2" d="M105.2,145.5c0.4,0,0.2-0.9,0.7-0.9c0.2,0,0.4-1.3,0.7-1.3c0.2,0,0.6,1.8,0.8,1.8c0.2,0,0.4-1.1,0.7-1.1
				c0.2,0,0.6,1.9,0.9,1.9c0.2,0,0.5-0.7,0.7-0.8c0.2,0,0.4-1.5,0.7-1.5c0.2,0,0.6,0.8,0.8,0.7c0.2,0,0.6,0.6,0.8,0.6
				c0.2,0,0.3-2.2,0.6-2.2c0.2,0,0.6,1,0.8,1c0.2,0,0.4-0.7,0.7-0.7c0.2,0,0.8,2.8,1,2.8s0.2-3.2,0.4-3.3c0.2,0,0.6,1,0.9,1
				c0.2,0,0.4-1,0.6-1.1c0.2,0,0.8,2.3,1,2.3s0.6,0.3,0.8,0.3c0.2,0,0.4-0.7,0.7-0.8c0.2,0,0.5-0.5,0.7-0.5s0.5-0.4,0.7-0.4
				c0.3,0,0.7,1.6,1,1.6c0.2,0,0.3-1.6,0.5-1.6s0.5,0.1,0.8,0c0.2,0,0.3-1.4,0.5-1.4s0.7,1.2,1,1.2c0.2,0,0.4-0.6,0.7-0.6
				c0.2,0,0.7,1.1,1,1.1c0.2,0,0.3-1.1,0.6-1.2c0.2,0,0.3-1.1,0.6-1.2c0.2,0,0.5,0,0.8,0c0.2,0,0.9,2.1,1.2,2.1
				c0.2-0.1,0.1-1.9,0.4-1.9c0.2-0.1,0.7,0.8,0.9,0.8c0.2-0.1,0.6,0.3,0.8,0.2s0.1-1.7,0.4-1.8c0.2-0.1,0.7,0.7,0.9,0.7
				c0.2-0.1,0.2-1.5,0.4-1.6s0.8,1.1,1,1s0.2-1.4,0.4-1.4c0.2-0.1,0.9,1.3,1.1,1.2c0.2-0.1,0.2-1.2,0.4-1.3s0.8,1.1,1.1,1
				c0.2-0.1,0.5-0.3,0.7-0.3c0.2-0.1,0.8,1,1.1,0.9c0.2-0.1-0.2-2.5,0.1-2.5c0.2-0.1,0.7,0.6,1,0.6c0.2-0.1,0.8,0.9,1,0.8
				c0.2-0.1,0.5,0,0.8-0.1c0.2-0.1,0.2-0.9,0.5-1c0.2-0.1,0.8,0.9,1.1,0.8c0.2-0.1-0.3-2.4,0-2.5c0.2-0.1,0.7,0.4,0.9,0.4
				c0.2-0.1,0.2-0.9,0.5-1c0.2-0.1,1.2,1.8,1.4,1.7s-0.1-1.7,0.2-1.8c0.2-0.1,0.6,0.1,0.8,0s1,1.1,1.2,1s0.4-0.4,0.6-0.5
				c0.2-0.1-0.2-1.7,0.1-1.8c0.2-0.1,0.4-0.3,0.6-0.4c0.2-0.1,1,1,1.2,0.9s1.1,1.2,1.3,1.1c0.2-0.1,0.3-0.5,0.6-0.6
				c0.2-0.1-0.1-1.4,0.2-1.5c0.2-0.1,0.1-1.1,0.3-1.2c0.2-0.1,0.7,0.3,0.9,0.2s1.1,1.1,1.4,1c0.2-0.1,0.1-0.8,0.4-1
				c0.2-0.1,0-1.1,0.2-1.2c0.2-0.1,1.2,1.2,1.4,1.1c0.2-0.1,0.3-0.6,0.5-0.7c0.2-0.1,0.4-0.3,0.6-0.4c0.2-0.1,0.4-0.3,0.6-0.5
				c0.2-0.1-0.2-1.4,0-1.5s1.5,1.4,1.7,1.3c0.2-0.1-0.9-2.4-0.7-2.5s1.8,1.8,2,1.7s0.6-0.1,0.8-0.2c0.2-0.1-0.4-1.5-0.2-1.7
				c0.2-0.1-0.3-1.2,0-1.4c0.2-0.1,1.4,1.2,1.7,1c0.2-0.1,0.2-0.6,0.4-0.7c0.2-0.2,0.8,0.2,1,0s0.7,0.1,0.9-0.1s-1.2-2.3-1-2.5
				s0.7,0,0.8-0.1c0.2-0.2,0.4-0.3,0.6-0.5c0.2-0.2,1,0.4,1.2,0.2c0.2-0.2,0.2-0.6,0.3-0.8c0.2-0.2,1.2,0.5,1.3,0.3
				c0.2-0.2,0.6-0.1,0.8-0.3c0.2-0.2-1.3-2.1-1.1-2.2s1.6,0.8,1.7,0.6c0.2-0.2-0.1-0.8,0-1c0.2-0.2-0.4-1-0.2-1.2s1.7,0.8,1.9,0.6
				c0.2-0.2,0.9,0.1,1.1-0.1c0.2-0.2-0.5-1.1-0.3-1.3c0.2-0.2,0.6-0.2,0.7-0.4c0.2-0.2,0.3-0.5,0.4-0.7c0.2-0.2,0.1-0.6,0.3-0.8
				c0.2-0.2,1.4,0.4,1.5,0.2c0.1-0.2-0.6-1.1-0.5-1.3c0.1-0.2,1.1,0.1,1.2-0.1c0.1-0.2-0.6-1-0.4-1.2c0.1-0.2,1.1,0,1.2-0.2
				c0.1-0.2-1.1-1.2-0.9-1.4c0.1-0.2,0.1-0.6,0.2-0.8c0.1-0.2-0.3-0.7-0.2-0.9c0.1-0.2,0.8-0.1,0.9-0.4c0.1-0.2-0.8-1-0.7-1.2
				s0.8-0.2,0.9-0.4c0.1-0.2,0-0.6,0.1-0.8c0.1-0.2,0.8-0.2,0.9-0.4c0.1-0.2-0.7-0.8-0.6-1c0.1-0.2,3,0.6,3.1,0.4s-0.8-0.9-0.7-1.1
				s1-0.2,1.1-0.5c0.1-0.2-0.9-0.8-0.8-1.1c0.1-0.2,0.2-0.5,0.2-0.7c0.1-0.2,0.9-0.3,1-0.5s-2.2-1.1-2.1-1.3c0.1-0.2,2-0.1,2-0.3
				c0.1-0.2-1.9-0.9-1.8-1.2c0.1-0.2,1.3-0.3,1.3-0.5s0.9-0.4,0.9-0.6c0-0.3,0-0.5,0-0.8s1-0.4,1-0.6c0-0.3-2.1-0.8-2-1
				c0-0.3,0.5-0.5,0.5-0.7c0-0.3,0.2-0.5,0.2-0.7c0-0.3,0.9-0.4,0.9-0.7c0-0.3,0.4-0.5,0.4-0.8s-2.4-0.6-2.3-0.9
				c0-0.3,1.7-0.4,1.7-0.7c0-0.3-1.5-0.5-1.5-0.8s1-0.5,1-0.8s1.3-0.5,1.3-0.8s-1.1-0.5-1.1-0.8s-1.4-0.4-1.5-0.7
				c0-0.3,2.7-0.6,2.6-0.9c0-0.3-1.1-0.5-1.1-0.7c0-0.3,0.3-0.5,0.2-0.8c0-0.3-0.1-0.5-0.1-0.8s-2-0.4-2-0.6c0-0.3,1.9-0.7,1.9-0.9
				c0-0.3,0-0.5,0-0.8s0.7-0.6,0.7-0.8c0-0.3-3-0.2-3.1-0.4c0-0.3,0.1-0.5,0-0.8c0-0.3,2.2-0.8,2.2-1c0-0.3-1-0.4-1-0.6
				c0-0.3,0.1-0.5,0.1-0.8s1.4-0.7,1.4-1s-2.1-0.2-2.1-0.5s-1-0.4-1.1-0.6c0-0.3,1.2-0.7,1.2-1s-1.1-0.3-1.2-0.6
				c0-0.3,2.2-0.9,2.2-1.2c0-0.3-2-0.1-2.1-0.4c0-0.3,1.9-0.9,1.9-1.1c0-0.3-1-0.3-1-0.6c-0.1-0.2,0-0.5,0-0.8
				c-0.1-0.2-1.1-0.3-1.1-0.5c-0.1-0.2,0.6-0.7,0.6-0.9c-0.1-0.2-0.7-0.4-0.7-0.6c-0.1-0.2,0.8-0.7,0.8-1c-0.1-0.2-1.7-0.1-1.8-0.3
				c-0.1-0.2,1.4-0.9,1.3-1.1c-0.1-0.2-1.7-0.1-1.7-0.3c-0.1-0.2,0-0.5-0.1-0.8c-0.1-0.2-0.7-0.3-0.7-0.6c-0.1-0.2,0.8-0.8,0.7-1
				s0.4-0.7,0.3-0.9c-0.1-0.2,1.2-0.9,1.1-1.2c-0.1-0.2-0.3-0.5-0.3-0.7c-0.1-0.2-1.2-0.1-1.3-0.4c-0.1-0.2,0.2-0.6,0.1-0.8
				c-0.1-0.2-1.8,0.1-1.9-0.1c-0.1-0.2,1.3-1,1.2-1.2s-1.8,0.1-1.9-0.1c-0.1-0.2-0.3-0.4-0.4-0.7c-0.1-0.2,1.2-1,1.1-1.2
				c-0.1-0.2-1.7,0.1-1.8-0.1c-0.1-0.2-0.1-0.5-0.2-0.7c-0.1-0.2,0.7-0.9,0.6-1.1c-0.1-0.2,0.2-0.6,0.1-0.9c-0.1-0.2,0.6-0.8,0.5-1
				s0.4-0.8,0.3-1c-0.1-0.2-1.6,0.2-1.7-0.1c-0.1-0.2,0-0.6-0.1-0.8s0.1-0.6,0-0.9c-0.1-0.2-0.8-0.2-0.9-0.4
				c-0.1-0.2,0.6-0.9,0.5-1.1c-0.1-0.2-0.2-0.5-0.3-0.7s-0.3-0.4-0.4-0.7c-0.1-0.2-1.8,0.4-2,0.2c-0.1-0.2,1-1.1,0.9-1.4
				c-0.1-0.2-0.6-0.3-0.7-0.5c-0.1-0.2-1.6,0.4-1.8,0.1c-0.1-0.2-0.4-0.3-0.5-0.5s2.1-1.9,2-2.1c-0.1-0.2-0.7-0.2-0.8-0.4
				s0-0.6-0.2-0.8c-0.1-0.2-0.6-0.2-0.7-0.5c-0.1-0.2-0.4-0.4-0.5-0.6c-0.1-0.2-2,0.7-2.1,0.5s1.5-1.6,1.3-1.8
				c-0.1-0.2-1.6,0.5-1.8,0.3c-0.1-0.2,0.5-1,0.4-1.2s-1.7,0.6-1.8,0.4c-0.2-0.2,1.4-1.7,1.2-1.9s-0.2-0.5-0.3-0.7
				c-0.2-0.2,0.4-1,0.2-1.2s-1.9,0.8-2,0.6c-0.2-0.2-0.3-0.4-0.4-0.6c-0.2-0.2-0.5-0.3-0.6-0.5c-0.2-0.2-0.7,0-0.9-0.2
				s1.1-1.6,0.9-1.8c-0.2-0.2-1,0.2-1.2,0s-1.5,0.7-1.6,0.5c-0.2-0.2,2-2.5,1.8-2.7s-2,1.2-2.2,1s0.4-1.1,0.2-1.2
				c-0.2-0.2-0.9,0.2-1.1,0c-0.2-0.2,0.1-0.9,0-1c-0.2-0.2-0.4-0.3-0.6-0.5c-0.2-0.2,0.6-1.3,0.4-1.5c-0.2-0.2-0.5-0.3-0.6-0.4
				c-0.2-0.2-2.3,1.7-2.5,1.6c-0.2-0.2,0.3-1.1,0.2-1.3c-0.2-0.2-1.2,0.6-1.4,0.4s0.9-1.8,0.7-1.9c-0.2-0.2,0.1-0.9-0.1-1.1
				c-0.2-0.2-1.7,1.2-1.9,1s0.2-1.1,0.1-1.3c-0.2-0.2,0.4-1.3,0.2-1.4c-0.2-0.2-0.5-0.2-0.7-0.4c-0.2-0.2-1,0.4-1.2,0.3
				c-0.2-0.2,0-0.9-0.2-1c-0.2-0.2-0.8,0.2-1,0s-1.4,1.1-1.6,0.9c-0.2-0.1,0.8-2,0.6-2.2c-0.2-0.1-1.7,1.5-1.9,1.3s-0.2-0.6-0.4-0.7
				s1-2.4,0.8-2.5s-2,2.1-2.2,2s0.7-2,0.5-2.1s-0.8,0.3-1,0.1c-0.2-0.1-1,0.6-1.2,0.5s0.5-1.8,0.3-1.9s-1.5,1.6-1.8,1.5
				s-0.1-0.7-0.4-0.9c-0.2-0.1,0.6-2.1,0.4-2.3c-0.2-0.1-0.9,0.5-1.1,0.4c-0.2-0.1-1.3,1.3-1.5,1.2c-0.2-0.1,0.3-1.6,0-1.7
				c-0.2-0.1-1.1,1-1.3,0.9s-0.4-0.4-0.6-0.5c-0.2-0.1-0.5-0.1-0.8-0.2c-0.2-0.1-0.2-0.7-0.4-0.8s0.3-1.8,0.1-1.9
				c-0.2-0.1-0.8,0.5-1,0.4s-1.2,1.3-1.4,1.2s0.1-1.4-0.1-1.6c-0.2-0.1-0.3-0.6-0.5-0.7c-0.2-0.1-0.4-0.4-0.6-0.5
				c-0.2-0.1-0.4-0.4-0.6-0.5c-0.2-0.1-0.9,0.8-1.1,0.7c-0.2-0.1-0.8,0.7-1.1,0.7c-0.2-0.1,0-1.3-0.2-1.4c-0.2-0.1,0.1-1.6-0.2-1.7
				c-0.2-0.1-0.9,0.9-1.1,0.8c-0.2-0.1-1.1,1.5-1.3,1.4s0.3-2.3,0.1-2.4c-0.2-0.1-0.7,0.4-0.9,0.3c-0.2-0.1-0.4-0.4-0.6-0.5
				s-0.6,0.2-0.8,0.1c-0.2-0.1-0.2-1.2-0.4-1.3c-0.2-0.1-1.2,2.1-1.4,2c-0.2-0.1,0.1-2.2-0.1-2.2c-0.2-0.1-0.4-0.6-0.6-0.7
				S122.9,7,122.6,7c-0.2-0.1-0.5-0.2-0.7-0.3c-0.2-0.1-1.2,2.7-1.5,2.6c-0.2-0.1-0.5-0.1-0.7-0.1c-0.2-0.1,0.2-3,0-3.1s-0.8,1-1,1
				C118.5,7,118.2,7,117.9,7c-0.2-0.1-0.5-0.2-0.7-0.3c-0.2-0.1-0.8,1.4-1.1,1.3c-0.2-0.1-0.4-0.4-0.7-0.5c-0.2,0-0.2-1.8-0.4-1.9
				c-0.3,0-0.6,0.2-0.8,0.2c-0.3,0-0.8,1.6-1,1.5c-0.3,0-0.3-1.1-0.6-1.1c-0.3,0-0.7,1.3-1,1.3s-0.2-2-0.5-2.1c-0.3,0-0.8,1.7-1,1.7
				c-0.3,0-0.3-1.9-0.5-1.9c-0.3,0-0.6,0.7-0.8,0.7c-0.3,0-0.4-1.1-0.6-1.1c-0.3,0-0.7,1.7-0.9,1.7c-0.3,0-0.6,0.6-0.8,0.6
				c-0.3,0-0.4-0.7-0.7-0.7c-0.3,0-0.3-2.4-0.6-2.4c-0.3,0-0.6,1.8-0.9,1.8s-0.5,0.1-0.8,0.1s-0.4-1.7-0.7-1.7
				c-0.3,0-0.5,0.9-0.8,0.9s-0.5,0.3-0.8,0.3s-0.5,1.5-0.8,1.5s-0.5-2.2-0.8-2.2s-0.5-0.3-0.8-0.3S98.4,6.9,98.1,7
				c-0.3,0-0.5-1-0.8-1s-0.6-1.3-0.8-1.3c-0.3,0-0.5,0.4-0.7,0.4S95.5,6.9,95.2,7c-0.2,0-0.7-2-1-2c-0.2,0-0.3,1.4-0.6,1.4
				c-0.2,0-0.5,0.3-0.7,0.4c-0.2,0-0.4,0.8-0.6,0.8s-0.5-0.3-0.8-0.2c-0.2,0-0.9-2.2-1.1-2.2S89.8,4.9,89.6,5
				c-0.2,0-0.4,0.5-0.7,0.5c-0.2,0-0.5,0-0.8,0c-0.2,0-0.1,2.3-0.3,2.3c-0.2,0.1-0.8-1.1-1-1.1C86.6,7,86.2,6.5,86,6.6
				s-0.3,1.1-0.5,1.2c-0.2,0.1-0.4,0.7-0.6,0.7c-0.2,0.1-1-2-1.3-1.9c-0.2,0.1,0.2,2.9,0,2.9c-0.2,0.1-0.7-0.7-1-0.6
				c-0.2,0.1-1.1-2.1-1.3-2c-0.2,0.1,0,1.9-0.2,2s-0.3,0.7-0.6,0.8c-0.2,0.1-0.7-0.7-1-0.6c-0.2,0.1-0.6-0.2-0.8-0.1
				c-0.2,0.1-0.4,0.4-0.7,0.5c-0.2,0.1-0.3,0.8-0.5,0.9c-0.2,0.1-1.1-1.7-1.4-1.6c-0.2,0.1,0.4,2.6,0.1,2.6c-0.2,0.1-0.5,0-0.8,0.1
				c-0.2,0.1-0.8-0.6-1-0.5s-0.9-0.9-1.1-0.8c-0.2,0.1,0.4,2.3,0.1,2.4c-0.2,0.1-0.4,0.2-0.7,0.3c-0.2,0.1-0.6-0.1-0.8,0
				c-0.2,0.1-1.4-2.1-1.7-2c-0.2,0.1,0,1.3-0.2,1.4c-0.2,0.1-0.6-0.2-0.9-0.1c-0.2,0.1,0.4,2.2,0.2,2.3c-0.2,0.1-1.5-2-1.7-1.9
				s0.3,1.9,0.1,2c-0.2,0.1-1.4-1.7-1.6-1.6c-0.2,0.1,0.2,1.6,0,1.8c-0.2,0.1-0.7-0.2-0.9-0.1c0.1,0.3-0.2,0.3-0.4,0.4
				s-0.2,0.8-0.4,0.9c-0.2,0.1-0.6,0-0.8,0.1s-0.2,0.7-0.4,0.8c-0.2,0.1-0.6-0.1-0.9,0c-0.2,0.1-0.6,0-0.8,0.1s0,1.1-0.2,1.2
				S60,16.9,59.7,17c-0.2,0.1,0.2,1.4,0,1.5s-0.9-0.5-1.1-0.4c-0.2,0.1-0.3,0.4-0.6,0.6c-0.2,0.1-0.2,0.7-0.4,0.8
				c-0.2,0.1,0.2,1.2,0,1.4c-0.2,0.1-2-2-2.2-1.9s-0.6,0.1-0.8,0.2s0.9,2.2,0.7,2.3c-0.2,0.1-1.8-1.6-2-1.5s1.2,2.5,1,2.7
				c-0.2,0.1-1.4-1-1.6-0.9c-0.2,0.2-0.3,0.5-0.5,0.6c-0.2,0.2-0.7,0-0.9,0.1c-0.2,0.2,0.6,1.6,0.4,1.7c-0.2,0.2-1.8-1.5-2-1.4
				c-0.2,0.2-0.4,0.3-0.6,0.5c-0.2,0.2,0.6,1.5,0.4,1.6c-0.2,0.2-0.8-0.2-1-0.1c-0.2,0.2,0,0.8-0.2,1S47,25,46.8,25.2
				c-0.2,0.2,0.6,1.5,0.4,1.6c-0.2,0.2,0.3,1.1,0.1,1.3c-0.2,0.2-0.4,0.3-0.6,0.5c-0.2,0.2,0.1,0.8-0.1,1c-0.2,0.2-0.8-0.1-1,0
				c-0.2,0.2,0.1,0.8-0.1,1C45.3,31,45,31,44.8,31.2s-0.8-0.1-1,0.1s-0.5,0.2-0.7,0.4c-0.2,0.2,0.5,1.1,0.3,1.3s-1.9-1-2-0.9
				c-0.2,0.2-0.2,0.5-0.4,0.7s1,1.6,0.8,1.8s-2-1.1-2.1-0.9c-0.2,0.2-0.3,0.4-0.5,0.6c-0.2,0.2,1,1.5,0.9,1.7
				c-0.2,0.2-0.5,0.2-0.7,0.4s-1.4-0.5-1.5-0.3c-0.2,0.2-0.3,0.4-0.5,0.6c-0.2,0.2-0.5,0.2-0.7,0.4s0.4,0.9,0.2,1.1
				c-0.2,0.2-0.8,0-1,0.2s1,1.4,0.9,1.6c-0.1,0.2-1.5-0.4-1.6-0.2s-1.2-0.2-1.3,0s1.6,1.7,1.5,1.9s-1.2-0.2-1.3,0s-0.3,0.4-0.4,0.6
				c-0.1,0.2-0.2,0.5-0.3,0.7s-1.3-0.2-1.4,0c-0.1,0.2-0.3,0.4-0.4,0.7c-0.1,0.2,1.7,1.6,1.6,1.8s-0.4,0.4-0.5,0.6
				c-0.1,0.2-0.1,0.5-0.2,0.8c-0.1,0.2-0.8,0.1-0.9,0.4c-0.1,0.2,0.5,0.8,0.4,1.1c-0.1,0.2-1.7-0.3-1.8-0.1
				c-0.1,0.2-0.2,0.5-0.3,0.7c-0.1,0.2-0.8,0.2-0.9,0.4s1.6,1.3,1.4,1.6c-0.1,0.2-0.8,0.2-0.9,0.4s-0.3,0.4-0.4,0.7
				c-0.1,0.2-1.6-0.2-1.7,0.1c-0.1,0.2,1.8,1.3,1.7,1.6c-0.1,0.2,0.2,0.6,0.1,0.8s-1.9-0.2-2,0C27,54.9,26,54.8,25.9,55
				s1.5,1.1,1.4,1.4c-0.1,0.2-1.6-0.1-1.6,0.2c-0.1,0.2,2.2,1.4,2.1,1.6c-0.1,0.2-2.9-0.5-3-0.3s-0.3,0.5-0.3,0.7
				c-0.1,0.2-0.1,0.5-0.2,0.7s1.2,0.9,1.1,1.2c-0.1,0.2,0.4,0.7,0.4,0.9c-0.1,0.2,0.1,0.5,0,0.8c-0.1,0.2-1.8,0-1.8,0.2
				c-0.1,0.2,0.5,0.7,0.4,0.9S24.1,63.7,24,64c-0.1,0.2,0,0.5-0.1,0.8c-0.1,0.2,1.1,0.8,1,1.1c-0.1,0.2-1.4,0.2-1.4,0.4
				C23.4,66.5,24,67,24,67.2c-0.1,0.2,0,0.5,0,0.8c-0.1,0.2-0.3,0.4-0.4,0.7c-0.1,0.2,0.5,0.6,0.5,0.9c-0.1,0.2,0.1,0.5,0.1,0.8
				c-0.1,0.2-1.3,0.3-1.3,0.5s1,0.7,1,1c0,0.2-1.9,0.2-1.9,0.4c0,0.2,1.1,0.7,1,1c0,0.3,0.6,0.6,0.5,0.9c0,0.3-0.5,0.4-0.5,0.7
				c0,0.3-1.6,0.3-1.6,0.5c0,0.3,0.3,0.6,0.2,0.8c0,0.3-1,0.4-1.1,0.6c0,0.3,0.9,0.6,0.8,0.9c0,0.3,1.3,0.7,1.3,0.9
				c0,0.3-1.1,0.4-1.1,0.6c0,0.3,0.4,0.6,0.4,0.8c0,0.3,0.1,0.5,0.1,0.8s-1.4,0.4-1.4,0.6c0,0.3-0.8,0.5-0.8,0.7
				c0,0.3,0.5,0.6,0.5,0.8c0,0.3,2.3,0.7,2.3,0.9c0,0.3-1,0.4-1,0.7c0,0.3-0.6,0.5-0.6,0.7c0,0.3-0.1,0.5-0.1,0.8s-1.3,0.5-1.3,0.7
				c0,0.3,2.7,0.6,2.7,0.8c0,0.3-0.5,0.5-0.5,0.7c0,0.3-2.4,0.5-2.4,0.7c0,0.3,2.1,0.5,2.1,0.8s0.9,0.5,0.9,0.8s-0.6,0.5-0.6,0.8
				s-2.4,0.5-2.4,0.8s0.5,0.5,0.5,0.8s2.3,0.5,2.3,0.7c0,0.3-0.9,0.5-0.9,0.8s1.1,0.5,1.1,0.7s-1.8,0.6-1.8,0.8c0,0.3-1.1,0.6-1,0.8
				c0,0.3,1.1,0.5,1.1,0.7c0,0.3,2,0.4,2,0.6c0,0.3-2.1,0.7-2.1,0.9c0,0.3,0.3,0.5,0.4,0.7c0,0.3,0.9,0.4,0.9,0.7
				c0,0.3,0,0.5,0.1,0.8c0,0.3,0.6,0.4,0.6,0.7c0,0.3,0.3,0.5,0.3,0.7c0,0.3-2,0.8-1.9,1.1c0,0.3,2.4,0.1,2.5,0.3
				c0,0.3-2.7,1-2.6,1.3s0.7,0.4,0.7,0.6c0.1,0.3,1.4,0.2,1.4,0.5c0.1,0.2,0.7,0.3,0.7,0.6c0.1,0.2-1.6,1-1.6,1.2
				c0.1,0.2,0.2,0.5,0.3,0.7c0.1,0.2,1.7,0,1.8,0.3c0.1,0.2,0.1,0.5,0.2,0.7s-2.3,1.3-2.2,1.6c0.1,0.2,3-0.5,3.1-0.3
				s-2.7,1.6-2.7,1.8c0.1,0.2,0.8,0.3,0.9,0.5s-0.2,0.7-0.1,0.9c0.1,0.2,2.1-0.4,2.2-0.1c0.1,0.2-0.8,0.9-0.7,1.2
				c0.1,0.2,1.4-0.1,1.5,0.1s0.9,0.1,1,0.3c0.1,0.2,0.2,0.4,0.3,0.7c0.1,0.2-0.8,1-0.7,1.2c0.1,0.2-0.7,1-0.5,1.2
				c0.1,0.2-0.4,0.9-0.2,1.1c0.1,0.2,0.9,0.1,1,0.3s1,0,1.1,0.2s0.9,0,1.1,0.2c0.1,0.2-1.5,1.7-1.3,1.9c0.2,0.2,0.6,0.2,0.8,0.4
				c0.2,0.2,0.5,0.3,0.7,0.5s-0.3,0.9-0.1,1.1c0.2,0.2,2-1,2.2-0.8s-1,1.6-0.8,1.8c0.2,0.2,0.5,0.3,0.6,0.5c0.2,0.2,0.5,0.3,0.7,0.4
				c0.2,0.2,1.2-0.4,1.4-0.3c0.2,0.2,0.5,0.2,0.7,0.3c0.2,0.2,0.9-0.3,1.1-0.1c0.2,0.2-1.7,2.6-1.5,2.8s0.6,0.1,0.8,0.3
				s0.5,0.2,0.7,0.4s1-0.4,1.2-0.2s0.8-0.2,1,0s1.1-0.6,1.3-0.4c0.2,0.2-1.4,2.6-1.2,2.8s0.4,0.4,0.6,0.5c0.2,0.1,1.8-1.6,2-1.4
				c0.2,0.1,0.2,0.5,0.4,0.7c0.2,0.1,0.3,0.4,0.6,0.5c0.2,0.1-0.5,1.7-0.3,1.9c0.2,0.1,0.3,0.5,0.5,0.6s1.6-1.7,1.8-1.5
				c0.2,0.1,0,0.9,0.3,1.1c0.2,0.1-0.4,1.7-0.1,1.8c0.2,0.1,1.1-0.9,1.3-0.8c0.2,0.1,0.8-0.3,1-0.2s0.5,0.2,0.7,0.3
				s-0.1,1.4,0.1,1.5s0.3,0.5,0.6,0.6c0.2,0.1,1.6-2.2,1.8-2.1c0.2,0.1-0.3,1.8-0.1,1.9c0.2,0.1,1.1-1.2,1.3-1.1
				c0.2,0.1-0.1,1.4,0.2,1.5c0.2,0.1,0.1,1.1,0.3,1.2c0.2,0.1,0.6-0.2,0.9-0.1c0.2,0.1,0.4,0.5,0.6,0.6c0.2,0.1,0.8-0.5,1-0.5
				c0.2,0.1,0.7-0.3,0.9-0.2s0.7-0.6,1-0.5c0.2,0.1,0,1.7,0.2,1.7c0.2,0.1,0.7-0.5,0.9-0.4s0,1.7,0.2,1.8s0.4,0.4,0.7,0.5
				c0.2,0.1,0.5,0,0.8,0.1c0.2,0.1,0.6-0.1,0.8-0.1c0.2,0.1,0.4,0.5,0.6,0.6s0.8-1.1,1.1-1c0.2,0.1,0.5,0,0.8,0.1
				c0.2,0.1,0.6-0.1,0.8-0.1c0.2,0.1,0.1,1.5,0.4,1.6c0.2,0.1,0.5,0.3,0.7,0.3c0.2,0.1,1.2-2.7,1.4-2.6c0.2,0.1,0.2,1.2,0.5,1.3
				c0.2,0.1,0.4,0.4,0.7,0.4c0.3,0.1,0.6-0.4,0.9-0.3c0.3,0.1,0.4,0.4,0.7,0.4c0.3,0.1,0.3,1.1,0.6,1.1c0.3,0,0.8-1.5,1-1.4
				c0.3,0,0.1,2.2,0.4,2.2s0.9-2.2,1.2-2.2c0.3,0,0.4,0.9,0.6,1c0.3,0,0.3,1.3,0.6,1.3c0.3,0,0.7-0.9,0.9-0.9c0.3,0,0.6-0.8,0.9-0.8
				s0.2,1.9,0.5,1.9s0.5,0.4,0.7,0.4c0.3,0,0.5,0.2,0.8,0.2s0.5,0.1,0.8,0.1s0.8-2.5,1.1-2.5c0.3,0,0.5,0.5,0.7,0.5
				c0.3,0,0.5,0.1,0.8,0.1s0.6-0.6,0.8-0.6c0.3,0,0.3,1.8,0.6,1.8c0.3,0,0.6-1,0.9-0.9c0.3,0,0.5-0.4,0.8-0.4s0.4,1.5,0.6,1.5
				c0.3,0,0.6-1.6,0.9-1.6s0.4,1.2,0.7,1.2c0.3,0,0.6-0.6,0.8-0.6c0.3,0,0.4,1.7,0.7,1.7c0.3,0,0.5,0.1,0.8,0.2
				c0.3,0,0.6-1.5,0.8-1.5c0.3,0,0.5,1,0.7,1c0.3,0,0.6-1.2,0.8-1.1c0.3,0,0.5,0.8,0.7,0.8c0.3,0,0.5-0.5,0.8-0.5s0.5,1.1,0.7,1.1
				c0.3,0,0.5-1.1,0.8-1.1s0.5,0.1,0.8,0.1s0.5-0.7,0.8-0.7s0.5,0.4,0.8,0.4s0.5,0.7,0.8,0.7s0.5-0.9,0.8-0.9s0.5,1.6,0.8,1.6
				s0.5-0.9,0.7-0.9c0.3,0,0.5-0.6,0.7-0.6c0.3,0,0.6,1.3,0.8,1.3c0.3,0,0.5,0.3,0.8,0.3s0.5-0.8,0.7-0.8c0.3,0,0.5-0.7,0.7-0.7
				c0.3,0,0.6,1.3,0.8,1.3c0.3,0,0.4-2.2,0.6-2.3c0.3,0,0.5,0,0.8,0s0.7,2.5,0.9,2.5c0.3,0,0.6,0,0.8,0
				C105.1,146.1,104.9,145.5,105.2,145.5z"/>
		</g>
		<path class="st0" d="M59.4,104.8c0-0.1-0.1-0.2-0.1-0.2v-0.1l0,0c0,0-0.1-0.1-0.2-0.3c-0.1-0.2-0.3-0.4-0.7-0.6
			c-0.3-0.2-0.8-0.3-1.4-0.3c-0.6,0-1.2,0.1-1.8,0.3c-0.1,0-0.2,0.1-0.2,0.1c-0.1,0-0.2,0.1-0.2,0.1c-0.2,0.1-0.3,0.1-0.5,0.2
			c-0.3,0.1-0.7,0.3-1,0.4c-0.7,0.3-1.4,0.6-2.2,0.9l-0.3,0.1c-0.1,0-0.2,0.1-0.3,0.1c-0.2,0.1-0.4,0.2-0.7,0.4
			c-0.4,0.3-0.8,0.7-1.1,1.1s-0.6,1-0.7,1.6c0,0.3-0.1,0.6,0,1c0,0.1,0,0.2,0,0.3c0,0.1,0.1,0.2,0.1,0.3v0.1v0.1l0.1,0.1v0.1l0,0
			l0,0v0.1l0.1,0.1c0,0.1,0.1,0.1,0.2,0.2c0.1,0.1,0.2,0.3,0.4,0.4c0.3,0.2,0.5,0.4,0.8,0.5c0.6,0.2,1.2,0.3,1.7,0.3
			c0.6,0,1.1-0.2,1.5-0.4c0.2-0.1,0.5-0.3,0.7-0.4h0.1l0,0l0,0c0,0,0.1,0,0,0l0,0l0.1-0.1l0.3-0.2c0.7-0.5,1.3-0.9,1.9-1.4
			c0.3-0.2,0.6-0.4,0.9-0.6c0.3-0.2,0.6-0.4,0.8-0.6c0.5-0.4,1-0.9,1.2-1.4c0.3-0.5,0.4-0.9,0.4-1.3C59.6,105.3,59.5,105,59.4,104.8
			z"/>
		<path class="st0" d="M134.4,108.6c-0.1-0.6-0.4-1.2-0.7-1.6s-0.7-0.8-1.1-1.1c-0.2-0.1-0.4-0.3-0.7-0.4c-0.1-0.1-0.2-0.1-0.3-0.1
			l-0.3-0.1c-0.8-0.3-1.5-0.6-2.2-0.9c-0.3-0.1-0.7-0.3-1-0.4c-0.2-0.1-0.3-0.1-0.5-0.2c-0.1,0-0.2-0.1-0.2-0.1
			c-0.1,0-0.2-0.1-0.2-0.1c-0.7-0.2-1.3-0.3-1.8-0.3s-1,0.2-1.4,0.3c-0.3,0.2-0.6,0.4-0.7,0.6s-0.2,0.3-0.2,0.3l0,0c0,0,0,0,0,0.1
			c0,0-0.1,0.1-0.1,0.2c-0.1,0.2-0.1,0.5-0.1,0.9s0.2,0.9,0.4,1.3c0.3,0.5,0.7,1,1.2,1.4c0.3,0.2,0.6,0.4,0.8,0.6
			c0.3,0.2,0.6,0.4,0.9,0.6c0.6,0.4,1.2,0.9,1.9,1.4l0.3,0.2l0.1,0.1l0,0l0,0l0,0l0,0h0.1c0.1,0.1,0.4,0.3,0.7,0.4
			c0.5,0.2,1,0.3,1.5,0.4c0.6,0,1.1,0,1.7-0.3c0.3-0.1,0.6-0.3,0.8-0.5c0.1-0.1,0.3-0.2,0.4-0.4c0.1-0.1,0.1-0.1,0.2-0.2l0.1-0.1
			v-0.1l0,0l0,0v-0.1l0.1-0.1v-0.1v-0.1c0-0.1,0.1-0.2,0.1-0.3c0-0.1,0-0.2,0-0.3C134.4,109.2,134.4,108.9,134.4,108.6z"/>
		<g class="st3">
			<g class="st4">
				<path class="st0" d="M74,122.6c-0.5-0.1-1,0-1.4-0.1c0.4,0.5,0.8,1.1,1.2,1.6c0-0.9,0.5-1.5,0.2-2.7s-1.5-1.1-2.4-1.5
					c0.4,0.4,0.8,0.8,1.1,1.1c0-0.2-0.1-0.5-0.1-0.7c-0.1,0.5-0.3,1.1-0.4,1.6c0.8-0.9,2-0.9,1.8-2.5c-0.3-1.6-1.1-1.4-2.2-2.2
					c0.2,0.7,0.4,1.5,0.6,2.2c0.6-1.2,0.6-1.7,0.2-2.9c-0.3,0.6-0.5,1.2-0.8,1.9c0.5-0.3,0.5-0.3,0.1-0.2c0.5,0.1,0.9,0.3,1.4,0.1
					c0.8-0.2,1.3-0.9,1.9-1.4c-0.8,0-1.5,0-2.3,0c0.3,0.3,0.6,0.8,1,1c1,0.6,0.3-0.2,0.8,0.4c0.6,0.7,1.7,0.5,2.3,0
					c0.4-0.4,0.6-0.9,1-1.2c-0.7,0.1-1.3,0.2-2,0.3c0.3,0,0.4,0.2,0.5,0.5c0.4,0.6,1.2,1,1.9,0.8c0.3-0.1,0.5-0.2,0.8-0.2
					c-0.7-0.4-1.3-0.8-2-1.1c0.1,0.4,0.1,0.9,0.2,1.3c0.3,0.9,1.5,1.6,2.4,1c0.5-0.3,0.5-0.7,0.9-0.6c-0.5-0.4-1.1-0.8-1.6-1.2
					c0.4,1.1,0.6,1.6,1.6,2.3c0.5,0.3,1.2,0.3,1.7,0c0.3-0.2,0.6-0.3,0.9-0.5c-0.7-0.2-1.5-0.4-2.2-0.6c0.3,0.6,0.6,1.3,1.4,1.5
					c1.5,0.4-0.2-0.9,0.6,0.5c1,1.6,2.8,0.9,4.2,0.5c-0.7-0.4-1.3-0.8-2-1.1c0.1,0.3,0.2,0.6,0.3,1c0.3,0.9,1.1,1.3,2,1.1
					c0.3,0,0.5-0.1,0.8-0.1c-0.7-0.4-1.3-0.8-2-1.1c0.1,0.4,0,0.9,0,1.4c0.1,0.8,1.3,1.4,2,1.1c0.6-0.2,1.2-0.6,1.8-0.8
					c-0.7-0.4-1.3-0.8-2-1.1c0.3,0.7,0.6,1.3,0.9,2c0.3,0.6,1.2,1,1.9,0.8c0.3-0.1,0.7-0.5,1-0.6c-0.7-0.4-1.3-0.8-2-1.1
					c0.2,0.6,0.4,1.2,0.6,1.9c0.3,0.9,1.1,1.3,2,1.1c0.3,0,0.5-0.1,0.8-0.1c-0.5-0.1-1.1-0.3-1.6-0.4c1.7,1.7,2.4,0.9,4,0.7
					c-0.5-0.4-1.1-0.8-1.6-1.2c0.1,0.5-0.1,1,0,1.5c0.3,1.1,1.5,1.5,2.4,1c0.5-0.2,0.7-0.7,1.2-1c-0.8-0.3-1.6-0.7-2.4-1
					c0.1,0.5-0.1,1.1,0,1.7c0.2,1.1,1.6,1.5,2.4,1c0.4-0.2,0.7-0.6,1.1-0.8c-0.8-0.3-1.6-0.7-2.4-1c0.1,0.4,0,0.9,0.1,1.3
					c0.2,0.8,0.9,1.1,1.6,1.2c0.8,0.1,1.6,0,2.2-0.6c0.2-0.2-0.1-0.3,0.2,0.4c0.3,1,1.5,1.6,2.4,1c0.4-0.2,0.7-0.6,1-0.8
					c-0.7-0.2-1.5-0.4-2.2-0.6c0.1,0.2,0.3,0.5,0.4,0.7c0.4,0.7,1.1,0.9,1.9,0.8c0.2,0,0.5-0.1,0.7-0.1c-0.7-0.4-1.3-0.8-2-1.1
					c0.2,0.4,0.2,0.8,0.3,1.2c0.4,1,1.4,1.5,2.4,1c0.4-0.2,0.7-0.3,1.1-0.3c-0.7-0.4-1.3-0.8-2-1.1c0.2,0.4,0.2,0.9,0.3,1.3
					c0.5,1.2,1.7,1.5,2.7,0.7c0.4-0.3,0.6-0.9,1-1.2c-0.5,0.1-1.1,0.3-1.6,0.4c0.7,0.1,0.8,0.1,0.3,0c0.1,0.5,0.2,0.8,0.4,1.3
					c0.4,0.8,1.4,0.8,2.1,0.9c0.7,0.1,1.3-0.5,1.6-1c0.9-1.6-1.7-0.9-0.6,0.2c0.6,0.7,1.7,0.6,2.3,0c0.9-0.8,0.9-1.4,1.2-2.5
					c-0.7,0.4-1.3,0.8-2,1.1c0.7,0.1,1.3,0.2,1.9,0.2c0.5,0,1.2-0.3,1.4-0.8c0.1-0.3,0.2-0.5,0.3-0.8c-0.5,0.3-0.9,0.5-1.4,0.8
					c0.5,0,0.6,0.3,1.1,0.5c0.7,0.3,1.8,0.3,2.2-0.6c0.4-0.8,0.8-1.7,1.1-2.6c-0.5,0.4-1.1,0.8-1.6,1.2c0.4,0,0.9,0.2,1.4,0.3
					s1.2-0.3,1.4-0.8c0.4-0.9,0.6-1.7,0.7-2.7c0-0.8-0.5-1.4-1.2-1.6c-0.6-0.2-1.3-0.2-1.9-0.5c0.4,0.5,0.8,1.1,1.2,1.6
					c0.1-3.1-1.4-4.2-4.1-3.1c0.6,0.3,1.2,0.5,1.9,0.8c-0.2-0.2-0.3-0.5-0.5-0.7c-0.5-0.7-1.4-1.1-2.2-0.6c-0.3,0.2-0.6,0.5-0.9,0.7
					c0.8,0.3,1.6,0.7,2.4,1c-0.2-0.5,0-1.1-0.2-1.7c-0.4-1.2-1.8-1.6-2.7-0.7c-0.4,0.4-0.6,1-1,1.3c0.9,0.1,1.7,0.2,2.6,0.3
					c-0.2-0.4-0.2-0.8-0.4-1.2c-0.2-0.5-0.9-0.8-1.4-0.8c-1,0-1.5,0.2-2.3,0.7c0.7,0.2,1.5,0.4,2.2,0.6c-0.6-0.9-0.8-1.4-1.7-2
					c-0.6-0.4-1.5-0.2-2,0.3c-0.4,0.3-0.5,0.9-0.9,1.2c0.5-0.1,1.1-0.3,1.6-0.4c-0.4-0.1-0.8-0.7-1.1-1c-0.6-0.7-1.7-0.6-2.3,0
					c-0.3,0.3-0.5,0.6-0.8,0.9c0.9,0.1,1.7,0.2,2.6,0.3c-0.2-0.3-0.4-0.6-0.6-0.9c-0.6-0.9-1.8-1.1-2.6-0.3
					c-0.4,0.4-0.5,0.9-0.8,1.2c0.8,0,1.5,0,2.3,0c-1.2-1.4-2.4-1.3-4-0.5c0.7,0.2,1.5,0.4,2.2,0.6c-0.2-0.4-0.3-0.9-0.6-1.3
					c-0.5-0.9-1.9-1.1-2.6-0.3c-0.3,0.3-0.5,0.7-0.7,1c0.7-0.1,1.3-0.2,2-0.3c-0.4-0.2-0.7-0.5-1-0.8c-0.6-0.6-1.8-0.7-2.3,0
					c-0.4,0.6-0.6,1.3-1,1.8c0.6-0.3,1.2-0.5,1.9-0.8c0.1,0-1.1-1.3-1.6-1.6c-0.6-0.4-1.5-0.3-2,0.3c-0.3,0.3-0.4,0.7-0.7,1
					c0.7-0.1,1.3-0.2,2-0.3c-0.2-0.1-0.4-0.3-0.7-0.4c-0.6-0.4-1.5-0.3-2,0.3c-0.2,0.3-0.4,0.5-0.7,0.8c0.7-0.1,1.3-0.2,2-0.3
					c-0.4-0.3-0.7-0.7-1-1.1c-0.8-0.9-2-0.4-2.6,0.3c-0.3,0.4-0.3,1-0.6,1.4c0.5-0.3,0.9-0.5,1.4-0.8c-0.7,0-1.1,0.1-1.7,0.3
					c0.5,0.1,1.1,0.3,1.6,0.4c-0.3-0.3-0.4-1-0.8-1.5c-0.7-0.9-2-0.5-2.6,0.3c-0.3,0.4-0.3,1-0.6,1.4c0.9-0.1,1.7-0.2,2.6-0.3
					c-0.3-0.3-0.5-0.8-0.8-1.1c-0.7-0.8-2.1-0.5-2.6,0.3c-0.2,0.4-0.3,0.8-0.5,1.2c0.9-0.1,1.7-0.2,2.6-0.3c-0.9-0.8-1-1.4-2.3-1.6
					c-2.1-0.3-3,2.9-0.9,3.2c0.5,0.1,0.5,0.4,0.9,0.7c0.8,0.7,2,0.6,2.6-0.3c0.2-0.4,0.3-0.8,0.5-1.2c-0.9,0.1-1.7,0.2-2.6,0.3
					c0.3,0.3,0.5,0.8,0.8,1.1c0.7,0.8,2,0.5,2.6-0.3c0.3-0.4,0.3-1,0.6-1.4c-0.9,0.1-1.7,0.2-2.6,0.3c0.2,0.3,0.4,1,0.8,1.5
					c0.3,0.4,1.1,0.6,1.6,0.4c0.7-0.3,1.5-0.1,2-0.7c0.5-0.5,0.5-1.2,0.9-1.7c-0.9,0.1-1.7,0.2-2.6,0.3c0.5,0.6,1,1.1,1.7,1.6
					c0.5,0.4,1.6,0.3,2-0.3c0.2-0.3,0.4-0.5,0.7-0.8c-0.7,0.1-1.3,0.2-2,0.3c0.2,0.1,0.4,0.3,0.7,0.4c0.6,0.4,1.5,0.3,2-0.3
					c0.3-0.3,0.4-0.7,0.7-1c-0.7,0.1-1.3,0.2-2,0.3c1,0.6,1,1.5,2.4,1.9c0.8,0.2,1.4-0.2,1.9-0.8c0.2-0.3,0.4-1,0.5-1.2
					c-0.8,0-1.5,0-2.3,0c0.5,0.6,1,0.9,1.6,1.3s1.5,0.3,2-0.3c0.3-0.3,0.5-0.7,0.7-1c-0.9-0.1-1.7-0.2-2.6-0.3
					c0.2,0.4,0.3,0.9,0.6,1.3c0.5,0.8,1.4,1,2.2,0.6c0.8-0.4-0.7-0.8,0,0c0.6,0.7,1.7,0.6,2.3,0c0.4-0.4,0.5-0.9,0.8-1.2
					c-0.9-0.1-1.7-0.2-2.6-0.3c0.2,0.3,0.4,0.6,0.6,0.9c0.6,0.9,1.8,1.1,2.6,0.3c0.3-0.3,0.5-0.6,0.8-0.9c-0.8,0-1.5,0-2.3,0
					c0.8,0.9,1.3,1.6,2.6,1.9c1.5,0.3,1.6-0.8,2.5-1.6c-0.7,0.1-1.3,0.2-2,0.3c0.4,0.3,0.2,0.3,0.5,0.9c0.5,0.7,1.5,1.1,2.2,0.6
					c0.2-0.2,0.4-0.3,0.6-0.3c-0.5-0.3-0.9-0.5-1.4-0.8c0.2,0.4,0.2,0.8,0.4,1.2c0.5,1,1.9,1,2.6,0.3c0.4-0.4,0.6-1,1-1.3
					c-0.9-0.2-1.8-0.5-2.7-0.7c0.2,0.5,0.1,1.1,0.2,1.7c0.3,1,1.5,1.6,2.4,1c0.3-0.2,0.6-0.5,0.9-0.7c-0.7-0.2-1.5-0.4-2.2-0.6
					c0.2,0.2,0.3,0.4,0.5,0.7c0.4,0.5,1.2,1.1,1.9,0.8c0.7-0.3,0.8-0.5,1.3-0.4c-0.5-0.3-0.9-0.5-1.4-0.8c0.3,0.4,0.1,0.6,0.1,1.2
					c0,0.8,0.5,1.3,1.2,1.6c0.6,0.3,1.2,0.3,1.9,0.5c-0.4-0.5-0.8-1.1-1.2-1.6c0,0.4,0,0.7-0.2,1c0.5-0.3,0.9-0.5,1.4-0.8
					c-0.5-0.1-0.9-0.3-1.4-0.3c-0.7-0.1-1.4,0.6-1.6,1.2s-0.5,1.2-0.8,1.8c0.7-0.2,1.5-0.4,2.2-0.6c-1-0.5-1.6-0.9-2.8-1
					c-0.5,0-1.2,0.3-1.4,0.8c-0.1,0.3-0.2,0.5-0.3,0.8c0.5-0.3,0.9-0.5,1.4-0.8c-0.4,0-0.7,0-1.1-0.1c-0.9-0.1-1.7,0.2-2,1.1
					c-0.2,0.5,0,0.7-0.4,1.1c0.8,0,1.5,0,2.3,0c-0.9-1-1.1-1.5-2.6-1.5c-0.6,0-1,0.3-1.3,0.7c-0.2,0.2-0.3,0.4-0.4,0.7
					c-0.3,0.7-0.2,0.7,0.3-0.1c0.5,0.3,0.9,0.5,1.4,0.8c-0.7-1.5-0.2-2.1-2-2.7c-1.9-0.6-2.1,0.6-3.2,1.6c0.9,0.2,1.8,0.5,2.7,0.7
					c-0.2-0.4-0.2-0.9-0.3-1.3c-0.3-0.9-1.1-1.3-2-1.1c-0.7,0.1-1.3,0.4-1.9,0.7c0.8,0.3,1.6,0.7,2.4,1c-0.2-0.4-0.1-0.8-0.3-1.2
					c-0.4-0.9-1.1-1.3-2-1.1c-0.2,0-0.5,0.1-0.7,0.1c0.6,0.3,1.2,0.5,1.9,0.8c-0.1-0.2-0.3-0.5-0.4-0.7c-0.4-0.7-1.5-1.1-2.2-0.6
					c-0.4,0.2-0.7,0.6-1,0.8c0.8,0.3,1.6,0.7,2.4,1c-0.3-1-0.8-2.4-2-2.7c-0.6-0.2-1.6-0.4-2.2-0.2c-0.4,0.1-0.9,0.8-1.4,0.7
					c0.5,0.4,1.1,0.8,1.6,1.2c-0.1-0.4,0-0.9-0.1-1.3c-0.2-1-1.5-1.5-2.4-1c-0.4,0.2-0.7,0.6-1.1,0.8c0.8,0.3,1.6,0.7,2.4,1
					c-0.1-0.5,0.1-1.1,0-1.7c-0.2-1.1-1.6-1.4-2.4-1c-0.5,0.2-0.7,0.8-1.2,1c0.8,0.3,1.6,0.7,2.4,1c-0.1-0.5,0.1-1,0-1.5
					c-0.2-0.7-0.9-1.3-1.6-1.2c-0.3,0-0.9,0-1.2,0.1c-0.2,0.1-0.5,0.2-0.7,0.3c-0.6,0.4-0.4,0.4,0.5,0.1c-0.8-0.8-1.6-0.7-2.7-0.5
					c0.7,0.4,1.3,0.8,2,1.1c-0.2-0.6-0.4-1.3-0.6-1.9c-0.2-0.8-1.2-1.5-2-1.1c-0.3,0.1-0.8,0.5-1,0.6c0.6,0.3,1.2,0.5,1.9,0.8
					c-0.2-0.4-0.4-0.8-0.5-1.2c-0.3-0.8-1.1-1.4-2-1.1c-0.7,0.2-1.2,0.6-1.8,0.8c0.7,0.4,1.3,0.8,2,1.1c-0.1-0.4,0-0.9,0-1.4
					c-0.1-1-1.2-1.3-2-1.1c-0.3,0-0.5,0.1-0.8,0.1c0.7,0.4,1.3,0.8,2,1.1c-0.1-0.3-0.2-0.6-0.3-1c-0.3-0.9-1.1-1.4-2-1.1
					c-0.4,0.1-0.9,0.2-1.3,0.4c0.4-0.1,1.3,1.1,0.5-0.3c-0.6-1-1.7-1.1-2.7-1.2c0.5,0.3,0.9,0.5,1.4,0.8c-0.1-0.2-0.3-0.5-0.4-0.7
					c-0.4-0.8-1.5-1-2.2-0.6c-0.3,0.2-0.6,0.3-0.9,0.5c0.6,0,1.1,0,1.7,0c0.1,0.3,0.1,0.1-0.1-0.4c-0.2-0.7-0.8-1.2-1.6-1.2
					c-1.3-0.1-1.6,0.4-2.6,1.1c0.8,0.3,1.6,0.7,2.4,1c-0.1-0.4-0.1-0.9-0.2-1.3c-0.3-0.8-1.1-1.4-2-1.1c-0.3,0.1-0.5,0.1-0.8,0.2
					c0.6,0.3,1.2,0.5,1.9,0.8c-0.5-0.8-0.8-1.3-1.7-1.7c-0.7-0.3-1.4-0.3-2,0.3c-0.4,0.3-0.6,0.9-1,1.2c0.8,0,1.5,0,2.3,0
					c-0.7-0.9-1.5-1-1.8-1.4c-0.6-0.7-1.7-0.6-2.3,0c-0.4,0.4-1.6,0.2-2.7,1c-0.6,0.4-1,1.1-0.8,1.9c0.3,1.1,0.5-0.4,0.1,0.4
					c-0.4,0.9-0.2,1.7,0.6,2.2c0.2,0.1,0.4,0.3,0.6,0.3c0.6,0.2,0.6,0.2,0.1-0.1c0.1-0.5,0.3-1.1,0.4-1.6c-0.9,0.9-2,1-1.8,2.5
					c0.3,1.7,1.1,1.6,2.5,2.2c-0.4-0.4-0.8-0.8-1.1-1.1c-0.1-0.3-0.3,1.3-0.3,1.8c0,0.7,0.5,1.5,1.2,1.6c0.5,0.1,1,0,1.4,0.1
					C75.2,126.2,76,123,74,122.6L74,122.6z"/>
			</g>
		</g>
		<g class="st3">
			<g class="st4">
				<path class="st0" d="M76.7,80.7c0.1,0.3,0.3,0.7,0.5,0.9c0-0.4,0-0.4,0,0.1c0,0.6,0.3,1,0.8,1.4c-0.2-0.7-0.2-0.8-0.2-0.2
					c0,0.3,0.1,0.6,0.2,0.8c0.4,0.7,1,1.1,1.7,1.5c-0.3-0.6-0.5-1.2-0.8-1.9c-0.6,2.2,0.8,3,1.4,4.3c0-0.6,0-1.1,0-1.7
					c-0.7,1.6-0.7,2.7,0.8,3.9c-0.1-0.5-0.3-1.1-0.4-1.6c-0.4,1.7,0,2.8,1.1,4.2c-0.1-0.5-0.3-1.1-0.4-1.6c-0.2,1.1-0.2,1.6,0.3,2.6
					c0.9,1.9,3.7,0.3,2.8-1.7c0.2,0.5,0.1-0.1,0.1-0.5c0-0.6-0.3-1-0.7-1.4c0.5,0.7,0.4,0.4,0.3-0.3c-0.4-1.5-0.5,0.5-0.3-0.4
					c0.1-0.5,0-1.2-0.4-1.6c-0.7-0.6-0.7,1-0.3,0.1c0.3-0.6,0.3-1.1,0-1.7c-0.2-0.5-0.4-1.2-0.8-1.6c-1-1-0.5,0.6-0.3-0.2
					c0.2-0.7-0.1-1.5-0.8-1.9c-0.7-0.4-0.3,0.5-0.4-0.2c0-0.4-0.1-0.9-0.5-1.2c-0.7-0.6-0.1,1-0.1,0c-0.1-0.8-0.6-1.2-0.9-1.9
					C78.6,77.2,75.8,78.8,76.7,80.7L76.7,80.7z"/>
			</g>
		</g>
		<g class="st3">
			<g class="st4">
				<path class="st0" d="M87.5,81.1c0.3,0.4,0.3,0.4,0.2-0.1c-0.1,0.3-0.1,0.5-0.1,0.8c0,0.8,0.5,1.2,1.1,1.7
					c-0.1-0.7-0.2-1.3-0.3-2c-0.1,0.2-0.3,0.5-0.4,0.7c-0.3,0.6-0.3,1.5,0.3,2c0.2,0.2,0.4,0.4,0.6,0.6c-0.2-0.4-0.3-0.8-0.5-1.2
					c-0.1,0.9,0.1,1.4,0.5,2.1c-0.1-0.4-0.1-0.8-0.2-1.3c-0.4,1.2,0,1.7,0.2,2.8c0.1-0.4,0.1-0.8,0.2-1.3c-0.7,1.3-0.7,2.1,0.1,3.3
					C89,88.9,89,89.7,89,90c0,0.7,0.5,1.2,0.9,1.7c1.3,1.7,3.6-0.7,2.3-2.3c-0.1-0.2-0.3-0.4-0.4-0.6c0.1,0.5,0.3,1.1,0.4,1.6
					c0.4-1.7,0.1-2.3-0.7-3.8c0,0.6,0,1.1,0,1.7c0.7-1.3,0.7-2.3,0-3.6c0.1,0.4,0.1,0.8,0.2,1.3c0.3-0.9,0.4-1.4-0.1-2.3
					c0.3,0.5,0.1-0.5,0.1-0.6c-0.2-0.6-0.6-0.9-1-1.3c0.1,0.7,0.2,1.3,0.3,2c0.1-0.2,0.3-0.5,0.4-0.7c0.3-0.7,0.3-1.5-0.3-2
					c-0.2-0.2-0.4-0.4-0.6-0.6c0.1,0.5,0.3,1.1,0.4,1.6c0.4-1.4,0-2.4-0.9-3.5C88.4,77.2,86.1,79.5,87.5,81.1L87.5,81.1z"/>
			</g>
		</g>
		<g>
			<path class="st0" d="M178.9,116.2c-0.2,0-0.4,0.2-0.6,0.2c-0.2,0-0.4-0.1-0.5-0.1c-0.2,0-0.4-0.2-0.6-0.2c-0.2,0-0.3,0.2-0.5,0.3
				c-0.2,0-0.3,0.3-0.4,0.4c-0.2,0.1-0.4-0.1-0.6,0c-0.2,0.1-0.5-0.2-0.7-0.1s-0.3,0.3-0.5,0.4s-0.2,0.4-0.3,0.5
				c-0.1,0.2,0,0.4-0.1,0.6s-0.1,0.3-0.2,0.5c-0.1,0.2-0.3,0.2-0.4,0.4s-0.4,0.2-0.4,0.4c-0.1,0.2,0.2,0.5,0.1,0.7
				c-0.1,0.2-0.3,0.2-0.4,0.4c-0.1,0.2-0.3,0.2-0.4,0.4c-0.1,0.2,0,0.4-0.1,0.6s-0.6,0-0.7,0.2c-0.1,0.2,0.2,0.5,0.1,0.7
				c-0.1,0.2-0.7,0-0.8,0.2s0.3,0.6,0.2,0.7c-0.1,0.2-0.5,0.1-0.6,0.3c-0.1,0.2-0.2,0.3-0.3,0.5s-0.4,0.2-0.5,0.3
				c-0.1,0.2,0.4,0.7,0.3,0.8c-0.1,0.2-0.3,0.3-0.4,0.4c-0.1,0.2-0.3,0.3-0.3,0.4c-0.1,0.2-0.1,0.3-0.2,0.5
				c-0.1,0.2-0.2,0.3-0.3,0.5s-0.6,0.1-0.7,0.2c-0.1,0.2,0,0.4-0.1,0.6c-0.1,0.2,0.1,0.5,0,0.6c-0.1,0.2-0.6,0.1-0.7,0.2
				c-0.1,0.2-0.2,0.3-0.3,0.5s0.1,0.5,0,0.6c-0.1,0.2-0.2,0.3-0.2,0.5c-0.1,0.2-0.3,0.2-0.4,0.4c-0.1,0.2-0.2,0.3-0.3,0.5
				s-0.3,0.3-0.3,0.4c-0.1,0.2-0.1,0.4-0.2,0.5c-0.1,0.2-0.2,0.3-0.3,0.4c-0.1,0.2,0,0.4,0,0.6c-0.1,0.2-0.5,0.1-0.6,0.3
				s0.3,0.6,0.2,0.7c-0.1,0.2-0.7,0-0.8,0.2s-0.2,0.3-0.2,0.5c-0.1,0.2-0.2,0.3-0.3,0.4c-0.1,0.2-0.1,0.4-0.2,0.5s0.2,0.5,0.1,0.7
				c-0.1,0.2-0.6,0.1-0.7,0.2c-0.1,0.2,0.1,0.5,0,0.6c-0.1,0.2,0,0.4-0.1,0.6s-0.2,0.3-0.3,0.5s-0.7,0-0.8,0.2s0.2,0.5,0.1,0.7
				c-0.1,0.2-0.4,0.2-0.5,0.4s-0.2,0.3-0.3,0.5s0.2,0.5,0.1,0.7c-0.1,0.2-0.1,0.3-0.2,0.5c-0.1,0.2-0.7,0-0.8,0.2s-0.2,0.3-0.3,0.4
				c-0.1,0.2-0.1,0.3-0.2,0.5c-0.1,0.2,0,0.4-0.1,0.6c-0.1,0.2,0,0.4,0,0.6s-0.4,0.2-0.5,0.3c-0.1,0.2,0.2,0.5,0.1,0.7
				c-0.1,0.2-0.6,0-0.7,0.2c-0.1,0.2-0.2,0.3-0.3,0.5s0.1,0.5,0,0.6c-0.1,0.2-0.3,0.2-0.4,0.4c-0.1,0.2-0.3,0.2-0.4,0.4
				c-0.1,0.2,0.2,0.5,0.1,0.7c-0.1,0.2-0.4,0.2-0.5,0.3c-0.1,0.2,0,0.4-0.1,0.6c-0.1,0.2-0.3,0.2-0.4,0.4c-0.1,0.2-0.2,0.3-0.3,0.4
				c-0.1,0.2-0.2,0.3-0.3,0.5s0.2,0.5,0.1,0.7c-0.1,0.2-0.8,0.1-0.9,0.2c-0.1,0.2-0.1,0.4-0.2,0.6c0,0.2,0.4,0.4,0.4,0.6
				c0,0.2,0.3,0.3,0.3,0.5s-0.6,0.6-0.5,0.7c0.1,0.2,0.7,0,0.8,0.2c0.1,0.1,0.2,0.2,0.4,0.3c0.1,0.1-0.1,0.7,0.1,0.8
				c0.2,0.1,0.6-0.3,0.7-0.2c0.2,0.1,0.2,0.6,0.4,0.6s0.4,0,0.6,0.1c0.2,0,0.4,0,0.6,0c0.2,0,0.4-0.2,0.5-0.2c0.2,0,0.4,0.3,0.6,0.2
				c0.2,0,0.4-0.2,0.5-0.3c0.2,0,0.4,0,0.6,0c0.2-0.1,0.1-0.7,0.3-0.7c0.2-0.1,0.5,0.2,0.7,0.2c0.2-0.1,0.4-0.1,0.5-0.2
				c0.2-0.1,0-0.6,0.2-0.7c0.1-0.1,0.3-0.2,0.4-0.3c0.1-0.1,0.6,0.1,0.7,0c0.1-0.1-0.1-0.6,0-0.8c0.1-0.1,0.6,0.1,0.7,0
				c0.1-0.1-0.1-0.6,0-0.7c0.1-0.1,0.3-0.2,0.4-0.3c0.1-0.1,0.6,0.1,0.7-0.1c0.1-0.1-0.2-0.6-0.1-0.8c0.1-0.1,0.3-0.2,0.4-0.4
				c0.1-0.1,0.3-0.3,0.4-0.4c0.1-0.1,0.5,0,0.7-0.2c0.1-0.1,0-0.5,0.1-0.6s0.2-0.3,0.3-0.5c0.1-0.1,0.4-0.1,0.5-0.2s0.5-0.1,0.6-0.2
				c0.1-0.1-0.1-0.6,0-0.7c0.1-0.1,0.7,0.1,0.8,0s0-0.5,0.1-0.6s0.2-0.3,0.3-0.4c0.1-0.1,0.4-0.1,0.5-0.3c0.1-0.1,0.1-0.4,0.3-0.5
				c0.1-0.1,0.5,0,0.6-0.2c0.1-0.1-0.3-0.7-0.2-0.9c0.1-0.1,0.3-0.3,0.4-0.4c0.1-0.1,0.5-0.1,0.6-0.2c0.1-0.1,0.1-0.4,0.3-0.5
				c0.1-0.1,0.4-0.2,0.5-0.3s0.5-0.1,0.6-0.2c0.1-0.1-0.2-0.7-0.1-0.8c0.1-0.1,0.7,0.1,0.8-0.1c0.1-0.1,0.2-0.3,0.3-0.5
				c0.1-0.1-0.2-0.6-0.1-0.7c0.1-0.1,0.4-0.2,0.5-0.3s0.5-0.1,0.6-0.2c0.1-0.1-0.1-0.5,0-0.7c0.1-0.1,0.4-0.2,0.5-0.3
				s0.1-0.4,0.2-0.5c0.1-0.1,0.4-0.1,0.5-0.3c0.1-0.1,0-0.5,0.1-0.6s0.5-0.1,0.6-0.2c0.1-0.1,0.2-0.3,0.3-0.5s0-0.4,0.1-0.6
				c0.1-0.2,0-0.4,0.1-0.6c0.1-0.2,0.4-0.2,0.5-0.3c0.1-0.2-0.2-0.5-0.1-0.7c0.1-0.2,0.6-0.1,0.7-0.2s0-0.4,0.1-0.6
				c0.1-0.2-0.1-0.5,0-0.6c0.1-0.2,0.7,0,0.8-0.2s0.3-0.3,0.4-0.4c0.1-0.2-0.2-0.5-0.1-0.7c0.1-0.2,0.3-0.3,0.4-0.4
				c0.1-0.2,0.3-0.3,0.4-0.4c0.1-0.2,0.1-0.4,0.2-0.5c0.1-0.2,0.4-0.2,0.5-0.3c0.1-0.2,0.2-0.3,0.3-0.5s-0.1-0.5,0-0.6
				c0.1-0.2,0.3-0.2,0.4-0.4c0.1-0.2,0.2-0.3,0.2-0.5c0.1-0.2-0.2-0.5-0.1-0.7c0.1-0.2,0.1-0.3,0.2-0.5c0.1-0.2,0.5-0.2,0.5-0.4
				c0.1-0.2-0.3-0.5-0.2-0.7s0.4-0.3,0.4-0.4c0.1-0.2,0.3-0.3,0.3-0.5c0.1-0.2,0-0.4,0-0.6c0.1-0.2,0-0.4,0-0.5
				c0-0.2,0.3-0.3,0.3-0.5s0.3-0.3,0.4-0.5c0-0.2,0-0.4,0-0.6s-0.4-0.4-0.4-0.6s-0.1-0.3-0.1-0.5s0.2-0.4,0.2-0.6s-0.1-0.3-0.2-0.5
				c-0.1-0.2,0.3-0.5,0.2-0.7s-0.4-0.3-0.5-0.4c-0.2-0.2-0.2-0.1-0.4-0.3c-0.1-0.1-0.3-0.2-0.5-0.3c-0.1-0.1-0.2-0.3-0.4-0.4
				c-0.1-0.1-0.6,0.2-0.7,0.1c-0.1-0.1-0.2-0.3-0.4-0.3c-0.2-0.1-0.2-0.4-0.3-0.5c-0.2-0.1-0.4,0.1-0.6,0.1
				c-0.2-0.1-0.2-0.6-0.3-0.6C179.3,116.1,179,116.2,178.9,116.2z"/>
		</g>
		<g>
			<path class="st0" d="M228.7,81.1c0.3-0.1,0.3,0.4,0.7,0.3c0.2,0,0.3-0.3,0.5-0.4c0.2,0,0.4,0,0.6,0c0.2,0,0.3-0.2,0.5-0.2
				s0.3-0.2,0.5-0.2s0.4,0.2,0.6,0.1c0.2,0,0.3-0.2,0.5-0.3c0.2,0,0.4,0.5,0.6,0.4c0.2,0,0.3-0.4,0.5-0.5c0.2,0,0.4,0,0.6,0
				c0.2,0,0.3-0.4,0.5-0.5c0.2,0,0.4,0.2,0.6,0.2c0.2,0,0.4-0.1,0.5-0.1c0.2,0,0.3-0.3,0.5-0.3s0.4,0.3,0.6,0.3
				c0.2,0,0.4,0.2,0.6,0.2c0.2,0,0.3-0.5,0.5-0.6c0.2,0,0.4,0.1,0.6,0.1c0.2,0,0.3-0.2,0.5-0.3c0.2,0,0.3-0.3,0.5-0.4
				c0.2,0,0.4,0,0.6,0c0.2,0,0.5,0.5,0.7,0.4c0.2,0,0.2-0.8,0.4-0.8s0.5,0.4,0.6,0.4c0.2,0,0.4,0.1,0.6,0.1c0.2,0,0.2-0.6,0.4-0.6
				s0.4,0.1,0.6,0c0.2,0,0.4,0.2,0.6,0.2s0.2-0.7,0.4-0.7s0.4,0,0.6-0.1c0.2,0,0.3-0.3,0.5-0.3s0.5,0.6,0.7,0.6s0.3-0.1,0.5-0.2
				c0.2,0,0.3-0.5,0.4-0.5c0.2,0,0.3-0.4,0.5-0.4s0.4-0.1,0.5-0.1c0.2,0,0.4,0.1,0.6,0c0.2,0,0.4,0.1,0.6,0c0.2,0,0.4-0.1,0.5-0.2
				c0.2,0,0.4-0.1,0.6-0.1c0.2,0,0.3-0.2,0.5-0.2c0.2-0.1,0.3-0.2,0.5-0.3c0.2-0.1,0.5,0.3,0.6,0.2c0.2-0.1,0.4-0.1,0.6-0.1
				c0.2-0.1,0.4,0.1,0.6,0c0.2-0.1,0.2-0.5,0.4-0.6c0.2,0,0.3-0.2,0.5-0.3c0.2-0.1,0.5,0.3,0.7,0.3s0.3-0.2,0.5-0.3
				c0.2,0,0.4-0.3,0.5-0.3c0.2,0,0.4,0.1,0.6,0.2c0.2,0,0.2,0.5,0.4,0.6c0.2,0.1,0.5-0.2,0.7-0.1s0.1,0.5,0.3,0.6
				c0.1,0.1,0.7-0.2,0.8-0.1c0.1,0.1,0,0.6,0.1,0.7s0.2,0.3,0.4,0.4c0.1,0.1,0.3,0.2,0.5,0.3c0.1,0.1,0.2,0.3,0.3,0.5
				c0.1,0.1,0.3,0.2,0.4,0.4c0.1,0.1,0,0.5,0.1,0.7c0.1,0.1,0.6,0,0.7,0.1c0.1,0.2-0.2,0.7-0.1,0.8c0.1,0.1,0.6,0,0.7,0.2
				c0.1,0.1,0.4,0.1,0.5,0.3c0.1,0.1,0,0.5,0,0.7c0.1,0.2,0.3,0.3,0.3,0.5s0.1,0.5,0,0.6c-0.1,0.2-0.4,0.2-0.5,0.4
				c-0.1,0.1-0.3,0.3-0.5,0.3c-0.2,0.1-0.4,0.3-0.5,0.3c-0.2,0-0.2-0.7-0.4-0.7c-0.2-0.1-0.6,0.5-0.7,0.4c-0.2-0.1-0.3-0.3-0.5-0.4
				c-0.2,0-0.3-0.2-0.5-0.2s-0.4,0-0.6,0s-0.4-0.4-0.5-0.4c-0.2,0-0.4,0.7-0.6,0.7s-0.4-0.4-0.6-0.4s-0.4-0.2-0.6-0.1
				c-0.2,0-0.4,0.1-0.5,0.2c-0.2,0-0.4,0.1-0.5,0.2c-0.2,0.1-0.3,0.3-0.5,0.4s-0.4-0.1-0.6,0c-0.2,0.1-0.3,0.2-0.5,0.3
				c-0.2,0.1-0.2,0.4-0.4,0.5c-0.1,0-0.4-0.2-0.7-0.1c-0.1,0.1-0.1,0.6-0.3,0.7s-0.3,0.2-0.5,0.3c-0.2,0.1-0.3,0.1-0.5,0.2
				s-0.5-0.2-0.7-0.1s-0.3,0.3-0.4,0.4c-0.2,0.1-0.4,0.1-0.5,0.1c-0.2,0.1-0.3,0.2-0.5,0.3c-0.2,0.1-0.2,0.3-0.4,0.4
				s-0.5-0.2-0.6-0.1c-0.2,0.1-0.2,0.3-0.4,0.4s-0.3,0.2-0.5,0.2c-0.2,0.1-0.1,0.6-0.3,0.7s-0.4,0-0.6,0c-0.2,0.1-0.5-0.3-0.7-0.3
				c-0.2,0.1-0.2,0.4-0.4,0.5s-0.3,0.1-0.5,0.2s-0.3,0.1-0.5,0.2s-0.3,0.2-0.5,0.3c-0.2,0.1-0.2,0.5-0.3,0.6
				c-0.2,0.1-0.5-0.2-0.7-0.1s-0.2,0.4-0.4,0.5s-0.5-0.1-0.6-0.1c-0.2,0.1-0.3,0.3-0.5,0.3c-0.2,0.1-0.3,0.2-0.5,0.3
				c-0.2,0.1-0.3,0.2-0.5,0.3c-0.2,0.1-0.3,0.2-0.5,0.3c-0.2,0.1-0.2,0.4-0.4,0.4c-0.2,0.1-0.5-0.3-0.7-0.2
				c-0.2,0.1-0.2,0.5-0.3,0.6c-0.2,0.1-0.5-0.2-0.7-0.2c-0.2,0.1-0.3,0.2-0.5,0.3c-0.2,0.1-0.2,0.6-0.3,0.6
				c-0.2,0.1-0.4,0.1-0.5,0.2c-0.2,0.1-0.6-0.4-0.7-0.3c-0.2,0.1-0.4,0.1-0.5,0.1c-0.2,0.1-0.1,0.7-0.2,0.8c-0.2,0.1-0.4-0.1-0.6,0
				c-0.2,0.1-0.5-0.2-0.6-0.1c-0.2,0.1-0.3,0.2-0.5,0.2c-0.2,0.1-0.3,0.2-0.5,0.2c-0.2,0.1-0.2,0.5-0.4,0.5
				c-0.2,0.1-0.5-0.2-0.7-0.1s-0.3,0.3-0.4,0.4c-0.2,0.1-0.1,0.6-0.3,0.7s-0.4,0-0.6,0.1c-0.2,0.1-0.5-0.2-0.7-0.2
				c-0.2,0.1-0.2,0.4-0.4,0.5s-0.5-0.1-0.6,0c-0.2,0.1-0.4,0.1-0.5,0.2c-0.2,0.1-0.1,0.8-0.2,0.8c-0.1,0-0.4-0.5-0.6-0.6
				c-0.2,0-0.5,0.5-0.7,0.5c-0.2-0.1-0.4-0.1-0.5-0.2c-0.2-0.1-0.2-0.5-0.4-0.5c-0.2-0.1-0.3-0.2-0.4-0.3c-0.2-0.1-0.4-0.1-0.5-0.2
				s-0.4-0.1-0.5-0.2s0.1-0.7-0.1-0.8c-0.1-0.1-0.4,0-0.6-0.1c-0.1-0.1-0.1-0.4-0.2-0.5c-0.1-0.1-0.4-0.1-0.5-0.3
				c-0.1-0.1-0.4-0.1-0.5-0.3c-0.1-0.2,0-0.4-0.1-0.6s-0.5-0.2-0.5-0.4c-0.1-0.2,0-0.4,0-0.6s-0.1-0.3-0.2-0.5
				c0-0.2,0.3-0.4,0.3-0.6s-0.2-0.4-0.2-0.5c0-0.2-0.2-0.4-0.2-0.6s0.1-0.4,0.1-0.6c0.1-0.2,0.1-0.4,0.2-0.5
				c0.1-0.2,0.2-0.3,0.3-0.5c0.1-0.1,0.2-0.3,0.4-0.4c0.1-0.1,0.2-0.3,0.4-0.4c0.1-0.1,0.1-0.4,0.2-0.5c0.1-0.1,0.8,0.3,0.9,0.1
				c0.1-0.1,0.1-0.4,0.3-0.5c0.1-0.1,0.1-0.4,0.3-0.5c0.1-0.1,0.5,0,0.6-0.1s0.2-0.3,0.3-0.4s0.3-0.1,0.5-0.2
				c0.1-0.1,0.2-0.3,0.4-0.4c0.1-0.1,0-0.6,0.2-0.7s0.5,0.1,0.7,0s0.2-0.4,0.3-0.5c0.2-0.1,0.5,0.2,0.7,0.1s0.4,0,0.6-0.1
				C228.7,81.9,228.5,81.2,228.7,81.1z"/>
		</g>
		<g>
			<path class="st0" d="M220.3,31.4c-0.2,0.2-0.4,0.4-0.4,0.7c0,0.2,0.2,0.5,0.2,0.8c0,0.2,0,0.5,0.1,0.8c0.1,0.2,0.2,0.4,0.3,0.7
				c0.1,0.2-0.2,0.6-0.1,0.9c0.1,0.2,0.2,0.5,0.4,0.7c0.1,0.2,0.5,0.3,0.6,0.6c0.1,0.2,0,0.6,0.1,0.8s0.7,0.2,0.8,0.4
				s-0.2,0.7,0,0.9c0.1,0.2,0.1,0.5,0.2,0.8c0.1,0.2,0.7,0.2,0.9,0.4c0.1,0.2,0.3,0.4,0.4,0.6c0.1,0.2,0.1,0.5,0.2,0.8
				c0.1,0.2-0.2,0.7-0.1,0.9c0.1,0.2,0.7,0.3,0.8,0.5c0.1,0.3,0.2,0.5,0.3,0.7c0.1,0.3,0.3,0.6,0.3,0.8c0,0.3-0.1,0.7-0.3,0.9
				c-0.1,0.2-0.5,0.3-0.7,0.4c-0.2,0.1-0.4,0.2-0.7,0.3c-0.2,0.1-0.5,0.1-0.7,0.2c-0.2,0.1-0.4,0.2-0.7,0.3
				c-0.2,0.1-0.5,0.2-0.7,0.3s-0.5,0.1-0.7,0.1c-0.2,0.1-0.4,0.5-0.6,0.6c-0.2,0.1-0.6-0.3-0.9-0.3s-0.4,0.3-0.7,0.4
				c-0.2,0.1-0.5,0.2-0.7,0.2c-0.2,0.1-0.6-0.1-0.8,0s-0.5,0.2-0.7,0.3s-0.4,0.3-0.6,0.5c-0.2,0.1-0.4,0.3-0.6,0.4
				c-0.2,0.1-0.4,0.3-0.6,0.5c-0.2,0.2-0.5,0.3-0.6,0.5s0.2,0.6,0.1,0.9c0,0.2-0.3,0.5-0.3,0.7s0.4,0.3,0.5,0.6
				c0.1,0.2,0.2,0.4,0.3,0.7c0.1,0.2,0.1,0.5,0.3,0.7c0.1,0.2,0,0.5,0.2,0.8c0.1,0.2,0.2,0.5,0.4,0.7c0.1,0.2,0.2,0.5,0.3,0.7
				c0.2,0.2,0.3,0.4,0.5,0.6c0.2,0.2,0.7,0,0.9,0.2s0.4,0.3,0.6,0.5c0.2,0.2,0.3,0.4,0.5,0.5c0.2,0.2,0.4,0.2,0.7,0.3
				c0.2,0.1,0.3,0.4,0.5,0.5s0.5,0.1,0.7,0.2c0.2,0.1,0.4,0.4,0.6,0.5c0.2,0.1,0.5,0.1,0.8,0.1c0.2,0,0.5-0.3,0.7-0.3
				s0.5,0.2,0.8,0.2c0.2,0,0.4-0.3,0.7-0.4c0.2-0.1,0.5,0,0.8-0.1c0.2-0.1,0.6,0.2,0.8,0.1c0.2-0.1,0.3-0.6,0.6-0.7
				c0.2-0.1,0.6,0,0.8-0.1s0.4-0.3,0.6-0.5c0.2-0.1,0.5-0.1,0.8-0.2c0.2-0.1,0.3-0.4,0.6-0.6c0.2-0.1,0.5-0.1,0.8-0.3
				c0.2-0.1,0.4-0.3,0.6-0.4c0.2-0.2,0.3-0.5,0.5-0.6c0.2-0.2,0.4-0.4,0.6-0.5c0.2-0.2,0.4-0.4,0.5-0.5c0.2-0.2,0.3-0.4,0.5-0.6
				c0.2-0.2,0.7-0.1,0.8-0.2c0.2-0.2,0.3-0.4,0.5-0.6c0.2-0.2,0.5-0.2,0.7-0.4s0-0.7,0.2-0.9s0.5-0.3,0.6-0.5
				c0.2-0.2,0.3-0.5,0.4-0.7c0.2-0.2,0.1-0.5,0.2-0.8c0.1-0.2,0.6-0.2,0.7-0.4c0.1-0.2-0.1-0.6,0-0.9c0.1-0.2,0.4-0.4,0.5-0.6
				c0.1-0.3,0.1-0.5,0.2-0.7c0.1-0.3,0.1-0.5,0.1-0.7s0-0.5,0-0.7s-0.1-0.5-0.1-0.7c-0.1-0.2,0-0.5-0.1-0.7s-0.5-0.3-0.6-0.5
				s0.1-0.6,0-0.8s-0.5-0.3-0.7-0.5c-0.1-0.2-0.1-0.5-0.3-0.7c-0.1-0.2-0.4-0.3-0.5-0.5s-0.2-0.5-0.3-0.7c-0.2-0.2-0.5-0.3-0.6-0.5
				c-0.2-0.2-0.2-0.4-0.4-0.6c-0.2-0.2-0.2-0.5-0.4-0.7s-0.5-0.3-0.6-0.5c-0.2-0.2-0.1-0.6-0.3-0.8s-0.2-0.5-0.4-0.6
				c-0.2-0.2-0.5-0.2-0.7-0.4s0-0.6-0.2-0.8s-0.5-0.3-0.6-0.5c-0.2-0.2-0.2-0.5-0.4-0.7s-0.6-0.2-0.8-0.4s-0.1-0.6-0.2-0.8
				c-0.1-0.2-0.4-0.4-0.5-0.6c-0.1-0.2-0.4-0.4-0.5-0.6c-0.1-0.3,0.1-0.6,0.2-0.8c0-0.3,0-0.5,0.2-0.7s0.2-0.5,0.4-0.7
				c0.1-0.2,0.6-0.3,0.7-0.6c0.1-0.3-0.1-0.6-0.1-0.9c0.1-0.3,0.6-0.5,0.6-0.7c0-0.3-0.4-0.6-0.5-0.8c-0.1-0.3-0.2-0.5-0.4-0.5
				s-0.4,0-0.7,0.2c-0.2,0.1-0.3,0.4-0.6,0.5c-0.2,0.1-0.3,0.4-0.6,0.5c-0.2,0.1-0.4,0.2-0.6,0.4c-0.2,0.1-0.7-0.1-0.9,0
				s-0.3,0.5-0.5,0.6s-0.6,0-0.8,0.1s-0.3,0.5-0.5,0.6s-0.2,0.6-0.4,0.7s-0.5,0.1-0.7,0.3c-0.2,0.2-0.5,0.2-0.7,0.4
				c-0.2,0.2-0.4,0.3-0.6,0.5C220.7,31.2,220.5,31.3,220.3,31.4z"/>
		</g>
		<g class="st5">
			<g>
				<circle class="st6" cx="142" cy="118.7" r="11.2"/>
			</g>
		</g>
		<g class="st5">
			<g>
				<circle class="st6" cx="43.2" cy="119.5" r="11.2"/>
			</g>
		</g>
	</g>
</g>
<rect class="st7" width="276.4" height="255.3"/>
</svg>
